<svg xmlns="http://www.w3.org/2000/svg" viewBox="0 0 200 200" width="200" height="200">
  <rect width="200" height="200" fill="none"/>
  <!-- Crown base -->
  <rect x="68" y="30" width="64" height="6" fill="#2a2a40"/>
  <rect x="70" y="26" width="60" height="6" fill="#3a3a55"/>
  <!-- Crown points -->
  <rect x="72" y="16" width="8" height="12" fill="#2a2a40"/>
  <rect x="74" y="10" width="4" height="8" fill="#3a3a55"/>
  <rect x="90" y="12" width="8" height="16" fill="#2a2a40"/>
  <rect x="92" y="6" width="4" height="8" fill="#3a3a55"/>
  <rect x="108" y="14" width="8" height="14" fill="#2a2a40"/>
  <rect x="110" y="8" width="4" height="8" fill="#3a3a55"/>
  <rect x="122" y="18" width="8" height="10" fill="#2a2a40"/>
  <rect x="124" y="12" width="4" height="8" fill="#3a3a55"/>
  <!-- Gems -->
  <rect x="75" y="12" width="3" height="3" fill="#bf00ff"/>
  <rect x="93" y="8" width="3" height="3" fill="#bf00ff"/>
  <rect x="111" y="10" width="3" height="3" fill="#bf00ff"/>
  <rect x="125" y="14" width="3" height="3" fill="#bf00ff"/>
  <!-- Central large gem -->
  <rect x="94" y="28" width="8" height="6" fill="#4a2068"/>
  <rect x="96" y="29" width="4" height="4" fill="#9900cc"/>
  <!-- Metal sheen -->
  <rect x="72" y="28" width="20" height="2" fill="#4a4a65" opacity="0.5"/>
  <rect x="108" y="28" width="20" height="2" fill="#4a4a65" opacity="0.5"/>
</svg>
