<svg xmlns="http://www.w3.org/2000/svg" viewBox="0 0 200 200" width="200" height="200">
  <rect width="200" height="200" fill="none"/>
  <!-- Floating soul orbs around creature -->
  <!-- Orb 1 - top left -->
  <rect x="30" y="35" width="8" height="4" fill="#4a2068" opacity="0.5"/>
  <rect x="28" y="39" width="12" height="6" fill="#6633cc" opacity="0.6"/>
  <rect x="30" y="45" width="8" height="4" fill="#4a2068" opacity="0.5"/>
  <rect x="32" y="40" width="4" height="4" fill="#bf00ff" opacity="0.7"/>
  <!-- Orb 2 - top right -->
  <rect x="155" y="28" width="8" height="4" fill="#4a2068" opacity="0.5"/>
  <rect x="153" y="32" width="12" height="6" fill="#6633cc" opacity="0.6"/>
  <rect x="155" y="38" width="8" height="4" fill="#4a2068" opacity="0.5"/>
  <rect x="157" y="33" width="4" height="4" fill="#bf00ff" opacity="0.7"/>
  <!-- Orb 3 - mid left -->
  <rect x="18" y="100" width="6" height="3" fill="#4a2068" opacity="0.4"/>
  <rect x="16" y="103" width="10" height="5" fill="#6633cc" opacity="0.5"/>
  <rect x="18" y="108" width="6" height="3" fill="#4a2068" opacity="0.4"/>
  <rect x="20" y="104" width="3" height="3" fill="#bf00ff" opacity="0.6"/>
  <!-- Orb 4 - right -->
  <rect x="170" y="90" width="6" height="3" fill="#4a2068" opacity="0.4"/>
  <rect x="168" y="93" width="10" height="5" fill="#6633cc" opacity="0.5"/>
  <rect x="170" y="98" width="6" height="3" fill="#4a2068" opacity="0.4"/>
  <rect x="172" y="94" width="3" height="3" fill="#bf00ff" opacity="0.6"/>
  <!-- Orb 5 - bottom -->
  <rect x="95" y="170" width="8" height="4" fill="#4a2068" opacity="0.45"/>
  <rect x="93" y="174" width="12" height="6" fill="#6633cc" opacity="0.55"/>
  <rect x="95" y="180" width="8" height="4" fill="#4a2068" opacity="0.45"/>
  <rect x="97" y="175" width="4" height="4" fill="#bf00ff" opacity="0.65"/>
  <!-- Connection lines (energy) -->
  <rect x="40" y="42" width="4" height="2" fill="#bf00ff" opacity="0.1"/>
  <rect x="46" y="44" width="4" height="2" fill="#bf00ff" opacity="0.08"/>
  <rect x="162" y="34" width="4" height="2" fill="#bf00ff" opacity="0.1"/>
  <rect x="156" y="36" width="4" height="2" fill="#bf00ff" opacity="0.08"/>
</svg>
