<svg xmlns="http://www.w3.org/2000/svg" viewBox="0 0 200 200" width="200" height="200">
  <rect width="200" height="200" fill="none"/>
  <!-- Energy pulse rings around tail -->
  <rect x="144" y="80" width="28" height="28" fill="none" opacity="0"/>
  <!-- Ring 1 - innermost -->
  <rect x="148" y="82" width="20" height="2" fill="#ff00ff" opacity="0.8"/>
  <rect x="148" y="102" width="20" height="2" fill="#ff00ff" opacity="0.8"/>
  <rect x="148" y="82" width="2" height="22" fill="#ff00ff" opacity="0.8"/>
  <rect x="166" y="82" width="2" height="22" fill="#ff00ff" opacity="0.8"/>
  <!-- Ring 2 -->
  <rect x="142" y="76" width="32" height="2" fill="#cc00ff" opacity="0.5"/>
  <rect x="142" y="108" width="32" height="2" fill="#cc00ff" opacity="0.5"/>
  <rect x="142" y="76" width="2" height="34" fill="#cc00ff" opacity="0.5"/>
  <rect x="172" y="76" width="2" height="34" fill="#cc00ff" opacity="0.5"/>
  <!-- Ring 3 - outermost -->
  <rect x="136" y="70" width="44" height="2" fill="#9900ff" opacity="0.3"/>
  <rect x="136" y="114" width="44" height="2" fill="#9900ff" opacity="0.3"/>
  <rect x="136" y="70" width="2" height="46" fill="#9900ff" opacity="0.3"/>
  <rect x="178" y="70" width="2" height="46" fill="#9900ff" opacity="0.3"/>
  <!-- Center glow -->
  <rect x="150" y="84" width="16" height="18" fill="#ff00ff" opacity="0.15"/>
</svg>
