<svg xmlns="http://www.w3.org/2000/svg" viewBox="0 0 32 32" shape-rendering="crispEdges">
  <rect width="32" height="32" fill="none"/>
  <!-- Kabuto base -->
  <rect x="6" y="4" width="2" height="2" fill="#7b2d8e"/>
  <rect x="8" y="2" width="2" height="2" fill="#7b2d8e"/>
  <rect x="10" y="2" width="2" height="2" fill="#9b59b6"/>
  <rect x="12" y="2" width="2" height="2" fill="#9b59b6"/>
  <rect x="14" y="2" width="2" height="2" fill="#9b59b6"/>
  <rect x="16" y="2" width="2" height="2" fill="#7b2d8e"/>
  <rect x="18" y="4" width="2" height="2" fill="#7b2d8e"/>
  <!-- Gold crest -->
  <rect x="12" y="0" width="2" height="2" fill="#ffd700"/>
  <rect x="10" y="0" width="2" height="2" fill="#d4a017"/>
  <rect x="14" y="0" width="2" height="2" fill="#d4a017"/>
  <!-- Gold trim -->
  <rect x="6" y="6" width="14" height="2" fill="#ffd700"/>
  <!-- Side wings -->
  <rect x="4" y="4" width="2" height="2" fill="#d4a017"/>
  <rect x="2" y="2" width="2" height="2" fill="#ffd700"/>
  <rect x="20" y="4" width="2" height="2" fill="#d4a017"/>
  <rect x="22" y="2" width="2" height="2" fill="#ffd700"/>
</svg>
