<svg xmlns="http://www.w3.org/2000/svg" viewBox="0 0 32 32" shape-rendering="crispEdges">
  <rect width="32" height="32" fill="none"/>
  <!-- Helmet -->
  <rect x="8" y="2" width="2" height="2" fill="#b8860b"/>
  <rect x="10" y="2" width="2" height="2" fill="#d4a017"/>
  <rect x="12" y="2" width="2" height="2" fill="#d4a017"/>
  <rect x="14" y="2" width="2" height="2" fill="#d4a017"/>
  <rect x="16" y="2" width="2" height="2" fill="#b8860b"/>
  <rect x="6" y="4" width="2" height="2" fill="#b8860b"/>
  <rect x="8" y="4" width="2" height="2" fill="#d4a017"/>
  <rect x="10" y="4" width="2" height="2" fill="#ffd700"/>
  <rect x="12" y="4" width="2" height="2" fill="#ffd700"/>
  <rect x="14" y="4" width="2" height="2" fill="#ffd700"/>
  <rect x="16" y="4" width="2" height="2" fill="#d4a017"/>
  <rect x="18" y="4" width="2" height="2" fill="#b8860b"/>
  <!-- Horns -->
  <rect x="4" y="2" width="2" height="2" fill="#ffd700"/>
  <rect x="2" y="0" width="2" height="2" fill="#ffd700"/>
  <rect x="20" y="2" width="2" height="2" fill="#ffd700"/>
  <rect x="22" y="0" width="2" height="2" fill="#ffd700"/>
  <!-- Nose guard -->
  <rect x="12" y="6" width="2" height="2" fill="#d4a017"/>
</svg>
