<svg xmlns="http://www.w3.org/2000/svg" viewBox="0 0 400 400" width="400" height="400">
  <!-- Trait: River Mist - water-patterns (early morning Congo fog) -->
  <defs>
    <linearGradient id="mistGrad" x1="0%" y1="100%" x2="0%" y2="0%">
      <stop offset="0%" stop-color="#B8D8E8" stop-opacity="0.8"/>
      <stop offset="60%" stop-color="#D0E8F4" stop-opacity="0.5"/>
      <stop offset="100%" stop-color="#E8F4FC" stop-opacity="0"/>
    </linearGradient>
  </defs>
  <!-- Mist layers -->
  <rect x="0" y="180" width="400" height="220" fill="url(#mistGrad)"/>
  <!-- Mist wisps -->
  <path d="M-20 250 Q60 235 140 250 Q220 265 300 248 Q360 235 420 250" fill="none" stroke="#C8E0F0" stroke-width="18" stroke-linecap="round" opacity="0.5"/>
  <path d="M-20 270 Q80 255 180 270 Q280 285 380 268 Q400 264 420 268" fill="none" stroke="#C8E0F0" stroke-width="14" stroke-linecap="round" opacity="0.4"/>
  <path d="M-20 290 Q50 278 130 290 Q210 302 290 285 Q350 272 420 285" fill="none" stroke="#D8ECF8" stroke-width="20" stroke-linecap="round" opacity="0.35"/>
  <path d="M-20 310 Q100 298 200 310 Q300 322 420 308" fill="none" stroke="#D8ECF8" stroke-width="16" stroke-linecap="round" opacity="0.3"/>
</svg>
