<svg xmlns="http://www.w3.org/2000/svg" viewBox="0 0 24 24" shape-rendering="crispEdges">
  <title>Trait: Fern Wreath</title>
  <desc>Lion mane variant - fern frond wreath</desc>
  <rect x="6" y="4" width="2" height="1" fill="#2d8a4e"/>
  <rect x="7" y="3" width="3" height="1" fill="#3da85e"/>
  <rect x="10" y="2" width="2" height="1" fill="#2d8a4e"/>
  <rect x="12" y="3" width="3" height="1" fill="#3da85e"/>
  <rect x="14" y="4" width="2" height="1" fill="#2d8a4e"/>
  <rect x="5" y="5" width="1" height="3" fill="#3da85e"/>
  <rect x="16" y="5" width="1" height="3" fill="#3da85e"/>
  <rect x="5" y="8" width="1" height="2" fill="#2d8a4e"/>
  <rect x="16" y="8" width="1" height="2" fill="#2d8a4e"/>
  <rect x="6" y="10" width="1" height="2" fill="#3da85e"/>
  <rect x="15" y="10" width="1" height="2" fill="#3da85e"/>
  <!-- Fern curl details -->
  <rect x="4" y="6" width="1" height="1" fill="#1e6b3a"/>
  <rect x="17" y="6" width="1" height="1" fill="#1e6b3a"/>
  <rect x="4" y="9" width="1" height="1" fill="#1e6b3a"/>
  <rect x="17" y="9" width="1" height="1" fill="#1e6b3a"/>
</svg>
