<svg xmlns="http://www.w3.org/2000/svg" viewBox="0 0 24 24" shape-rendering="crispEdges">
  <title>Trait: Flower Bloom</title>
  <desc>Lion mane variant - wildflower bloom</desc>
  <rect x="6" y="4" width="2" height="2" fill="#4a7c34"/>
  <rect x="8" y="3" width="2" height="2" fill="#cc66aa"/>
  <rect x="10" y="2" width="2" height="2" fill="#4a7c34"/>
  <rect x="12" y="3" width="2" height="2" fill="#ddaa44"/>
  <rect x="14" y="4" width="2" height="2" fill="#4a7c34"/>
  <rect x="5" y="6" width="2" height="2" fill="#cc66aa"/>
  <rect x="15" y="6" width="2" height="2" fill="#ddaa44"/>
  <rect x="5" y="8" width="2" height="2" fill="#ddaa44"/>
  <rect x="15" y="8" width="2" height="2" fill="#cc66aa"/>
  <rect x="6" y="10" width="2" height="2" fill="#4a7c34"/>
  <rect x="14" y="10" width="2" height="2" fill="#4a7c34"/>
  <!-- Flower centers -->
  <rect x="9" y="3" width="1" height="1" fill="#ffee66"/>
  <rect x="13" y="3" width="1" height="1" fill="#ffee66"/>
  <rect x="6" y="7" width="1" height="1" fill="#ffee66"/>
  <rect x="16" y="7" width="1" height="1" fill="#ffee66"/>
</svg>
