<svg xmlns="http://www.w3.org/2000/svg" viewBox="0 0 200 200" width="200" height="200">
  <rect width="200" height="200" fill="#0a0015"/>
  <!-- Upper jaw / long snout facing right -->
  <rect x="100" y="55" width="80" height="10" fill="#003322"/>
  <rect x="110" y="48" width="70" height="8" fill="#004433"/>
  <rect x="120" y="42" width="60" height="8" fill="#003322"/>
  <rect x="130" y="38" width="50" height="6" fill="#004433"/>
  <!-- Upper teeth neon glow -->
  <rect x="115" y="63" width="6" height="8" fill="#e0ffe0"/>
  <rect x="125" y="63" width="6" height="10" fill="#e0ffe0"/>
  <rect x="135" y="63" width="6" height="8" fill="#e0ffe0"/>
  <rect x="145" y="63" width="6" height="10" fill="#e0ffe0"/>
  <rect x="155" y="63" width="6" height="8" fill="#e0ffe0"/>
  <rect x="165" y="63" width="5" height="7" fill="#e0ffe0"/>
  <!-- Snout neon circuit lines -->
  <rect x="112" y="50" width="60" height="2" fill="#00ffcc" opacity="0.6"/>
  <rect x="108" y="57" width="70" height="2" fill="#00ff99" opacity="0.5"/>
  <!-- Lower jaw -->
  <rect x="105" y="75" width="75" height="10" fill="#003322"/>
  <rect x="110" y="85" width="68" height="8" fill="#004433"/>
  <!-- Lower teeth -->
  <rect x="118" y="73" width="5" height="7" fill="#c0ffd0"/>
  <rect x="128" y="72" width="5" height="8" fill="#c0ffd0"/>
  <rect x="138" y="73" width="5" height="7" fill="#c0ffd0"/>
  <rect x="148" y="72" width="5" height="8" fill="#c0ffd0"/>
  <rect x="158" y="73" width="5" height="7" fill="#c0ffd0"/>
  <!-- Head -->
  <rect x="68" y="52" width="38" height="12" fill="#003322"/>
  <rect x="60" y="64" width="48" height="12" fill="#004433"/>
  <rect x="55" y="76" width="55" height="12" fill="#003322"/>
  <rect x="58" y="88" width="50" height="10" fill="#004433"/>
  <!-- Eye neon yellow -->
  <rect x="78" y="62" width="14" height="12" fill="#001100"/>
  <rect x="80" y="63" width="10" height="10" fill="#ffee00"/>
  <rect x="83" y="65" width="4" height="6" fill="#ffffff"/>
  <rect x="74" y="58" width="22" height="20" fill="#ffee00" opacity="0.1"/>
  <!-- Brow ridge plates -->
  <rect x="72" y="56" width="30" height="5" fill="#005544"/>
  <rect x="75" y="53" width="10" height="4" fill="#006655"/>
  <!-- Body -->
  <rect x="40" y="98" width="75" height="14" fill="#003322"/>
  <rect x="35" y="112" width="80" height="14" fill="#004433"/>
  <rect x="35" y="126" width="78" height="14" fill="#003322"/>
  <rect x="38" y="140" width="72" height="12" fill="#004433"/>
  <!-- Dorsal plates neon tips -->
  <rect x="55" y="94" width="8" height="10" fill="#004433"/>
  <rect x="55" y="88" width="8" height="8" fill="#00ffcc"/>
  <rect x="68" y="94" width="8" height="12" fill="#004433"/>
  <rect x="68" y="86" width="8" height="10" fill="#00ff99"/>
  <rect x="82" y="94" width="8" height="10" fill="#004433"/>
  <rect x="82" y="88" width="8" height="8" fill="#00ffcc"/>
  <rect x="96" y="94" width="8" height="12" fill="#004433"/>
  <rect x="96" y="86" width="8" height="10" fill="#00ff99"/>
  <!-- Circuit pattern on back -->
  <rect x="40" y="108" width="72" height="2" fill="#00ffcc" opacity="0.5"/>
  <rect x="70" y="108" width="2" height="30" fill="#00ffcc" opacity="0.5"/>
  <rect x="70" y="130" width="30" height="2" fill="#00ff99" opacity="0.5"/>
  <!-- Front legs -->
  <rect x="42" y="152" width="16" height="18" fill="#003322"/>
  <rect x="38" y="170" width="22" height="8" fill="#002211"/>
  <rect x="36" y="177" width="6" height="6" fill="#00ffcc" opacity="0.7"/>
  <rect x="43" y="177" width="6" height="6" fill="#00ffcc" opacity="0.7"/>
  <rect x="50" y="177" width="6" height="6" fill="#00ffcc" opacity="0.7"/>
  <!-- Back leg -->
  <rect x="72" y="152" width="16" height="18" fill="#003322"/>
  <rect x="68" y="170" width="22" height="8" fill="#002211"/>
  <rect x="66" y="177" width="6" height="6" fill="#00ffcc" opacity="0.7"/>
  <rect x="73" y="177" width="6" height="6" fill="#00ffcc" opacity="0.7"/>
  <rect x="80" y="177" width="6" height="6" fill="#00ffcc" opacity="0.7"/>
  <!-- Tail tapering left -->
  <rect x="22" y="135" width="20" height="12" fill="#004433"/>
  <rect x="10" y="138" width="15" height="10" fill="#003322"/>
  <rect x="2" y="140" width="10" height="8" fill="#004433"/>
  <rect x="2" y="140" width="10" height="8" fill="#00ffcc" opacity="0.3"/>
</svg>
