<svg xmlns="http://www.w3.org/2000/svg" viewBox="0 0 200 200" width="200" height="200">
  <rect width="200" height="200" fill="#0a0015"/>
  <!-- Left wing extended -->
  <rect x="10" y="70" width="20" height="8" fill="#1a0035"/>
  <rect x="15" y="62" width="25" height="8" fill="#220044"/>
  <rect x="20" y="54" width="30" height="8" fill="#1a0035"/>
  <rect x="28" y="46" width="32" height="8" fill="#220044"/>
  <rect x="36" y="56" width="28" height="8" fill="#1a0035"/>
  <rect x="30" y="64" width="30" height="8" fill="#220044"/>
  <rect x="22" y="72" width="30" height="8" fill="#1a0035"/>
  <!-- Wing neon edges left -->
  <rect x="10" y="70" width="20" height="2" fill="#ff00ff" opacity="0.8"/>
  <rect x="15" y="62" width="25" height="2" fill="#ff00cc" opacity="0.8"/>
  <rect x="20" y="54" width="30" height="2" fill="#ff00ff" opacity="0.8"/>
  <rect x="28" y="46" width="32" height="2" fill="#cc00ff" opacity="0.8"/>
  <!-- Right wing -->
  <rect x="130" y="62" width="35" height="8" fill="#220044"/>
  <rect x="140" y="54" width="30" height="8" fill="#1a0035"/>
  <rect x="150" y="46" width="26" height="8" fill="#220044"/>
  <rect x="155" y="38" width="22" height="8" fill="#1a0035"/>
  <rect x="158" y="30" width="18" height="8" fill="#220044"/>
  <rect x="148" y="56" width="20" height="8" fill="#1a0035"/>
  <rect x="138" y="64" width="20" height="8" fill="#220044"/>
  <!-- Wing neon edges right -->
  <rect x="130" y="62" width="35" height="2" fill="#ff00ff" opacity="0.8"/>
  <rect x="140" y="54" width="30" height="2" fill="#ff00cc" opacity="0.8"/>
  <rect x="150" y="46" width="26" height="2" fill="#ff00ff" opacity="0.8"/>
  <rect x="155" y="38" width="22" height="2" fill="#cc00ff" opacity="0.8"/>
  <!-- Body -->
  <rect x="52" y="58" width="86" height="12" fill="#220044"/>
  <rect x="55" y="70" width="82" height="12" fill="#1a0035"/>
  <rect x="58" y="82" width="76" height="14" fill="#220044"/>
  <rect x="62" y="96" width="68" height="14" fill="#1a0035"/>
  <!-- Chest neon band -->
  <rect x="60" y="74" width="72" height="4" fill="#ff00ff" opacity="0.6"/>
  <!-- Head (facing left) -->
  <rect x="52" y="35" width="55" height="10" fill="#1a0035"/>
  <rect x="48" y="45" width="60" height="12" fill="#220044"/>
  <rect x="45" y="55" width="55" height="10" fill="#1a0035"/>
  <!-- Beak facing left - yellow -->
  <rect x="28" y="44" width="22" height="6" fill="#ffcc00"/>
  <rect x="22" y="50" width="26" height="5" fill="#ffaa00"/>
  <rect x="18" y="44" width="12" height="4" fill="#ffcc00"/>
  <!-- Eye -->
  <rect x="62" y="48" width="13" height="10" fill="#000500"/>
  <rect x="63" y="49" width="11" height="8" fill="#00ffcc"/>
  <rect x="65" y="51" width="5" height="4" fill="#ffffff"/>
  <rect x="58" y="44" width="22" height="18" fill="#00ffcc" opacity="0.1"/>
  <!-- Crest feathers neon tips -->
  <rect x="80" y="28" width="8" height="10" fill="#220044"/>
  <rect x="80" y="22" width="8" height="8" fill="#ff00ff"/>
  <rect x="92" y="24" width="8" height="10" fill="#220044"/>
  <rect x="92" y="18" width="8" height="8" fill="#cc00ff"/>
  <rect x="104" y="26" width="8" height="10" fill="#220044"/>
  <rect x="104" y="20" width="8" height="8" fill="#ff00ff"/>
  <!-- Talons -->
  <rect x="68" y="110" width="14" height="16" fill="#1a0035"/>
  <rect x="62" y="126" width="8" height="12" fill="#0a0015"/>
  <rect x="70" y="126" width="8" height="14" fill="#0a0015"/>
  <rect x="78" y="126" width="8" height="12" fill="#0a0015"/>
  <rect x="62" y="130" width="26" height="4" fill="#ff00ff" opacity="0.4"/>
  <rect x="100" y="110" width="14" height="16" fill="#1a0035"/>
  <rect x="94" y="126" width="8" height="12" fill="#0a0015"/>
  <rect x="102" y="126" width="8" height="14" fill="#0a0015"/>
  <rect x="110" y="126" width="8" height="12" fill="#0a0015"/>
  <rect x="94" y="130" width="26" height="4" fill="#ff00ff" opacity="0.4"/>
  <!-- Energy trail -->
  <rect x="8" y="66" width="6" height="4" fill="#ff00ff" opacity="0.5"/>
  <rect x="4" y="68" width="6" height="4" fill="#cc00ff" opacity="0.4"/>
  <rect x="0" y="70" width="6" height="4" fill="#9900ff" opacity="0.3"/>
</svg>
