<svg xmlns="http://www.w3.org/2000/svg" viewBox="0 0 200 200" width="200" height="200">
  <rect width="200" height="200" fill="none"/>
  <!-- Hexagonal dark spots -->
  <!-- Spot 1 -->
  <rect x="70" y="82" width="8" height="4" fill="#1a0028"/>
  <rect x="68" y="86" width="12" height="6" fill="#1a0028"/>
  <rect x="70" y="92" width="8" height="4" fill="#1a0028"/>
  <rect x="72" y="88" width="4" height="3" fill="#4a0066" opacity="0.5"/>
  <!-- Spot 2 -->
  <rect x="96" y="90" width="8" height="4" fill="#1a0028"/>
  <rect x="94" y="94" width="12" height="6" fill="#1a0028"/>
  <rect x="96" y="100" width="8" height="4" fill="#1a0028"/>
  <rect x="98" y="96" width="4" height="3" fill="#4a0066" opacity="0.5"/>
  <!-- Spot 3 -->
  <rect x="118" y="85" width="8" height="4" fill="#1a0028"/>
  <rect x="116" y="89" width="12" height="6" fill="#1a0028"/>
  <rect x="118" y="95" width="8" height="4" fill="#1a0028"/>
  <rect x="120" y="91" width="4" height="3" fill="#4a0066" opacity="0.5"/>
  <!-- Spot 4 -->
  <rect x="82" y="110" width="8" height="4" fill="#1a0028"/>
  <rect x="80" y="114" width="12" height="6" fill="#1a0028"/>
  <rect x="82" y="120" width="8" height="4" fill="#1a0028"/>
  <rect x="84" y="116" width="4" height="3" fill="#4a0066" opacity="0.5"/>
  <!-- Spot 5 -->
  <rect x="108" y="108" width="8" height="4" fill="#1a0028"/>
  <rect x="106" y="112" width="12" height="6" fill="#1a0028"/>
  <rect x="108" y="118" width="8" height="4" fill="#1a0028"/>
  <rect x="110" y="114" width="4" height="3" fill="#4a0066" opacity="0.5"/>
</svg>
