<svg xmlns="http://www.w3.org/2000/svg" viewBox="0 0 200 200" width="200" height="200">
  <rect width="200" height="200" fill="none"/>
  <!-- Diagonal dark stripes across body -->
  <rect x="60" y="80" width="4" height="12" fill="#0d0015" opacity="0.6"/>
  <rect x="64" y="76" width="4" height="12" fill="#0d0015" opacity="0.6"/>
  <rect x="72" y="82" width="4" height="12" fill="#0d0015" opacity="0.6"/>
  <rect x="76" y="78" width="4" height="12" fill="#0d0015" opacity="0.6"/>
  <rect x="84" y="84" width="4" height="12" fill="#0d0015" opacity="0.6"/>
  <rect x="88" y="80" width="4" height="12" fill="#0d0015" opacity="0.6"/>
  <rect x="96" y="86" width="4" height="12" fill="#0d0015" opacity="0.6"/>
  <rect x="100" y="82" width="4" height="12" fill="#0d0015" opacity="0.6"/>
  <rect x="108" y="88" width="4" height="12" fill="#0d0015" opacity="0.6"/>
  <rect x="112" y="84" width="4" height="12" fill="#0d0015" opacity="0.6"/>
  <rect x="120" y="90" width="4" height="12" fill="#0d0015" opacity="0.6"/>
  <rect x="124" y="86" width="4" height="12" fill="#0d0015" opacity="0.6"/>
  <!-- Continuation on lower body -->
  <rect x="65" y="108" width="4" height="10" fill="#0d0015" opacity="0.5"/>
  <rect x="69" y="104" width="4" height="10" fill="#0d0015" opacity="0.5"/>
  <rect x="85" y="110" width="4" height="10" fill="#0d0015" opacity="0.5"/>
  <rect x="89" y="106" width="4" height="10" fill="#0d0015" opacity="0.5"/>
  <rect x="105" y="112" width="4" height="10" fill="#0d0015" opacity="0.5"/>
  <rect x="109" y="108" width="4" height="10" fill="#0d0015" opacity="0.5"/>
</svg>
