<svg xmlns="http://www.w3.org/2000/svg" viewBox="0 0 200 200" width="200" height="200">
  <rect width="200" height="200" fill="none"/>
  <!-- Dark purple veins across body -->
  <rect x="65" y="80" width="3" height="3" fill="#4a0066"/>
  <rect x="68" y="83" width="3" height="3" fill="#4a0066"/>
  <rect x="71" y="86" width="3" height="3" fill="#660088"/>
  <rect x="74" y="89" width="3" height="3" fill="#4a0066"/>
  <rect x="77" y="92" width="3" height="3" fill="#660088"/>
  <rect x="80" y="95" width="3" height="3" fill="#4a0066"/>
  <rect x="83" y="98" width="3" height="3" fill="#660088"/>
  <rect x="86" y="101" width="3" height="3" fill="#4a0066"/>
  <!-- Branch -->
  <rect x="77" y="86" width="3" height="3" fill="#660088"/>
  <rect x="80" y="83" width="3" height="3" fill="#4a0066"/>
  <rect x="83" y="80" width="3" height="3" fill="#660088"/>
  <!-- Second vein -->
  <rect x="100" y="85" width="3" height="3" fill="#4a0066"/>
  <rect x="103" y="88" width="3" height="3" fill="#660088"/>
  <rect x="106" y="91" width="3" height="3" fill="#4a0066"/>
  <rect x="109" y="94" width="3" height="3" fill="#660088"/>
  <rect x="112" y="97" width="3" height="3" fill="#4a0066"/>
  <rect x="115" y="100" width="3" height="3" fill="#660088"/>
  <rect x="118" y="103" width="3" height="3" fill="#4a0066"/>
  <!-- Branch -->
  <rect x="109" y="88" width="3" height="3" fill="#660088"/>
  <rect x="112" y="85" width="3" height="3" fill="#4a0066"/>
</svg>
