<svg width="32" height="32" viewBox="0 0 32 32" xmlns="http://www.w3.org/2000/svg">
  <!-- Base Lion - Ancient Stone Theme -->
  <rect width="32" height="32" fill="#8a7f8d" />
  
  <!-- Stone body -->
  <path d="M12,18 C14,20 18,20 20,18 L20,22 C18,24 14,24 12,22 Z" fill="#7d6d7f" />
  
  <!-- Head -->
  <path d="M10,12 C12,8 20,8 22,12 L22,16 C20,18 12,18 10,16 Z" fill="#8a7f8d" />
  
  <!-- Stone mane -->
  <path d="M8,10 C6,12 6,16 8,18 L10,16 C8,14 8,12 10,10 Z" fill="#635c68" />
  <path d="M24,10 C26,12 26,16 24,18 L22,16 C24,14 24,12 22,10 Z" fill="#635c68" />
  
  <!-- Bronze accents -->
  <circle cx="14" cy="14" r="1" fill="#d4a017" />
  <circle cx="18" cy="14" r="1" fill="#d4a017" />
  <path d="M14,16 L18,16" stroke="#d4a017" stroke-width="1" />
  
  <!-- Stone texture -->
  <path d="M12,20 L14,22" stroke="#635c68" stroke-width="0.5" />
  <path d="M18,20 L20,22" stroke="#635c68" stroke-width="0.5" />
</svg>