<svg width="32" height="32" viewBox="0 0 32 32" xmlns="http://www.w3.org/2000/svg">
  <!-- Base Serpent - Ancient Stone Theme -->
  <rect width="32" height="32" fill="#8a7f8d" />
  
  <!-- Stone body -->
  <path d="M8,16 C6,18 6,22 8,24 C10,26 22,26 24,24 C26,22 26,18 24,16 C22,14 10,14 8,16 Z" fill="#7d6d7f" />
  
  <!-- Head -->
  <path d="M22,12 C24,10 26,12 26,14 C24,16 22,14 22,12 Z" fill="#8a7f8d" />
  
  <!-- Bronze scales -->
  <circle cx="10" cy="18" r="1" fill="#d4a017" />
  <circle cx="14" cy="20" r="1" fill="#d4a017" />
  <circle cx="18" cy="20" r="1" fill="#d4a017" />
  <circle cx="22" cy="18" r="1" fill="#d4a017" />
  
  <!-- Stone texture -->
  <path d="M10,16 L12,14" stroke="#635c68" stroke-width="0.5" />
  <path d="M22,16 L20,14" stroke="#635c68" stroke-width="0.5" />
  
  <!-- Eyes -->
  <circle cx="24" cy="13" r="0.5" fill="#000" />
</svg>