<svg xmlns="http://www.w3.org/2000/svg" viewBox="0 0 32 32" shape-rendering="crispEdges">
  <title>Background: Data Void</title>
  <rect width="32" height="32" fill="#020408"/>
  <!-- Hexagonal data fragments floating -->
  <rect x="3" y="3" width="2" height="1" fill="#00e5ff" opacity="0.2"/>
  <rect x="2" y="4" width="4" height="1" fill="#00e5ff" opacity="0.15"/>
  <rect x="3" y="5" width="2" height="1" fill="#00e5ff" opacity="0.1"/>
  <rect x="24" y="8" width="2" height="1" fill="#00bcd4" opacity="0.25"/>
  <rect x="23" y="9" width="4" height="1" fill="#00bcd4" opacity="0.2"/>
  <rect x="24" y="10" width="2" height="1" fill="#00bcd4" opacity="0.15"/>
  <rect x="12" y="24" width="2" height="1" fill="#0097a7" opacity="0.2"/>
  <rect x="11" y="25" width="4" height="1" fill="#0097a7" opacity="0.15"/>
  <rect x="12" y="26" width="2" height="1" fill="#0097a7" opacity="0.1"/>
  <!-- Scattered particles -->
  <rect x="7" y="15" width="1" height="1" fill="#00ffff" opacity="0.3"/>
  <rect x="18" y="6" width="1" height="1" fill="#00ffff" opacity="0.2"/>
  <rect x="27" y="20" width="1" height="1" fill="#00ffff" opacity="0.25"/>
  <rect x="5" y="28" width="1" height="1" fill="#00ffff" opacity="0.15"/>
  <rect x="22" y="28" width="1" height="1" fill="#00ffff" opacity="0.2"/>
  <rect x="15" y="16" width="1" height="1" fill="#00e5ff" opacity="0.1"/>
</svg>
