<svg xmlns="http://www.w3.org/2000/svg" viewBox="0 0 32 32" shape-rendering="crispEdges">
  <title>Background: Matrix Rain</title>
  <rect width="32" height="32" fill="#050a12"/>
  <!-- Falling data columns -->
  <rect x="2" y="0" width="1" height="1" fill="#00e5ff" opacity="0.3"/>
  <rect x="2" y="2" width="1" height="1" fill="#00e5ff" opacity="0.5"/>
  <rect x="2" y="4" width="1" height="1" fill="#00e5ff" opacity="0.7"/>
  <rect x="2" y="6" width="1" height="1" fill="#00ffff" opacity="0.9"/>
  <rect x="2" y="8" width="1" height="1" fill="#80ffff"/>
  <rect x="8" y="3" width="1" height="1" fill="#00e5ff" opacity="0.2"/>
  <rect x="8" y="5" width="1" height="1" fill="#00e5ff" opacity="0.4"/>
  <rect x="8" y="7" width="1" height="1" fill="#00e5ff" opacity="0.6"/>
  <rect x="8" y="9" width="1" height="1" fill="#00ffff" opacity="0.8"/>
  <rect x="8" y="11" width="1" height="1" fill="#80ffff"/>
  <rect x="14" y="1" width="1" height="1" fill="#00e5ff" opacity="0.3"/>
  <rect x="14" y="3" width="1" height="1" fill="#00e5ff" opacity="0.5"/>
  <rect x="14" y="5" width="1" height="1" fill="#00e5ff" opacity="0.7"/>
  <rect x="14" y="7" width="1" height="1" fill="#00ffff" opacity="0.9"/>
  <rect x="20" y="5" width="1" height="1" fill="#00e5ff" opacity="0.3"/>
  <rect x="20" y="7" width="1" height="1" fill="#00e5ff" opacity="0.5"/>
  <rect x="20" y="9" width="1" height="1" fill="#00e5ff" opacity="0.7"/>
  <rect x="20" y="11" width="1" height="1" fill="#00ffff" opacity="0.9"/>
  <rect x="20" y="13" width="1" height="1" fill="#80ffff"/>
  <rect x="26" y="2" width="1" height="1" fill="#00e5ff" opacity="0.4"/>
  <rect x="26" y="4" width="1" height="1" fill="#00e5ff" opacity="0.6"/>
  <rect x="26" y="6" width="1" height="1" fill="#00ffff" opacity="0.8"/>
  <rect x="26" y="8" width="1" height="1" fill="#80ffff"/>
  <rect x="5" y="14" width="1" height="1" fill="#00e5ff" opacity="0.3"/>
  <rect x="5" y="16" width="1" height="1" fill="#00e5ff" opacity="0.6"/>
  <rect x="5" y="18" width="1" height="1" fill="#00ffff" opacity="0.9"/>
  <rect x="11" y="18" width="1" height="1" fill="#00e5ff" opacity="0.4"/>
  <rect x="11" y="20" width="1" height="1" fill="#00e5ff" opacity="0.7"/>
  <rect x="11" y="22" width="1" height="1" fill="#80ffff"/>
  <rect x="23" y="16" width="1" height="1" fill="#00e5ff" opacity="0.5"/>
  <rect x="23" y="18" width="1" height="1" fill="#00ffff" opacity="0.8"/>
  <rect x="29" y="10" width="1" height="1" fill="#00e5ff" opacity="0.4"/>
  <rect x="29" y="12" width="1" height="1" fill="#00e5ff" opacity="0.7"/>
  <rect x="29" y="14" width="1" height="1" fill="#80ffff"/>
</svg>
