<svg xmlns="http://www.w3.org/2000/svg" viewBox="0 0 80 80" width="80" height="80">
  <!-- Trait: Earth Aura - stone geometric emanation -->
  <!-- Concentric hexagon rings (geometric earth energy) -->
  <polygon points="40,6 62,18 62,42 40,54 18,42 18,18" fill="none" stroke="#8B7355" stroke-width="2.5" opacity="0.5"/>
  <polygon points="40,14 56,23 56,41 40,50 24,41 24,23" fill="none" stroke="#A0522D" stroke-width="2" opacity="0.55"/>
  <polygon points="40,22 50,28 50,40 40,46 30,40 30,28" fill="none" stroke="#8B7355" stroke-width="1.5" opacity="0.65"/>
  <!-- Stone shards radiating -->
  <path d="M40,6 L36,2 L40,0 L44,2 Z" fill="#8B7355" opacity="0.6"/>
  <path d="M62,42 L66,44 L66,50 L62,48 Z" fill="#8B7355" opacity="0.6"/>
  <path d="M40,54 L44,58 L40,60 L36,58 Z" fill="#8B7355" opacity="0.6"/>
  <path d="M18,18 L14,16 L14,10 L18,12 Z" fill="#8B7355" opacity="0.6"/>
  <!-- Center stone core -->
  <polygon points="40,30 44,33 44,37 40,40 36,37 36,33" fill="#A0522D" opacity="0.5"/>
  <circle cx="40" cy="35" r="4" fill="#C4A882" opacity="0.8"/>
  <circle cx="40" cy="35" r="2" fill="#8B7355"/>
</svg>
