<svg xmlns="http://www.w3.org/2000/svg" viewBox="0 0 80 80" width="80" height="80">
  <!-- Trait: Nature Aura - leaf orbital rings -->
  <circle cx="40" cy="40" r="34" fill="none" stroke="#6B8F5E" stroke-width="2" stroke-dasharray="6 4" opacity="0.5"/>
  <circle cx="40" cy="40" r="24" fill="none" stroke="#4A7C59" stroke-width="1.5" stroke-dasharray="4 3" opacity="0.6"/>
  <!-- Orbiting leaves -->
  <path d="M40,8 Q34,2 28,6 Q34,14 40,8 Z" fill="#8BC34A"/>
  <path d="M72,40 Q78,34 74,28 Q66,34 72,40 Z" fill="#6B8F5E"/>
  <path d="M40,72 Q46,78 52,74 Q46,66 40,72 Z" fill="#8BC34A"/>
  <path d="M8,40 Q2,46 6,52 Q14,46 8,40 Z" fill="#6B8F5E"/>
  <!-- Diagonal leaves -->
  <path d="M62,18 Q68,12 66,6 Q58,12 62,18 Z" fill="#4A7C59"/>
  <path d="M18,62 Q12,68 14,74 Q22,68 18,62 Z" fill="#4A7C59"/>
  <path d="M62,62 Q68,68 74,66 Q68,58 62,62 Z" fill="#8BC34A"/>
  <path d="M18,18 Q12,12 6,14 Q12,22 18,18 Z" fill="#8BC34A"/>
  <!-- Center -->
  <circle cx="40" cy="40" r="5" fill="#4A7C59"/>
  <circle cx="40" cy="40" r="2.5" fill="#8BC34A"/>
</svg>
