<svg xmlns="http://www.w3.org/2000/svg" viewBox="0 0 80 80" width="80" height="80">
  <!-- Trait: Flame Aura - pulsing fire corona -->
  <!-- Outer irregular flame ring -->
  <path d="M40,6 Q50,2 52,12 Q62,8 62,18 Q72,18 72,28 Q78,32 74,40 Q78,48 72,52 Q72,62 62,62 Q62,72 52,72 Q48,78 40,74 Q32,78 28,72 Q18,72 18,62 Q8,62 8,52 Q2,48 6,40 Q2,32 8,28 Q8,18 18,18 Q18,8 28,12 Q30,2 40,6 Z" fill="none" stroke="#E67E22" stroke-width="2" opacity="0.5"/>
  <!-- Inner flame spikes -->
  <path d="M40,14 Q44,8 46,16 Q50,10 50,18" fill="none" stroke="#C0392B" stroke-width="2" stroke-linecap="round"/>
  <path d="M62,28 Q68,30 62,34 Q68,36 64,42" fill="none" stroke="#C0392B" stroke-width="2" stroke-linecap="round"/>
  <path d="M40,66 Q36,72 34,64 Q30,70 30,62" fill="none" stroke="#C0392B" stroke-width="2" stroke-linecap="round"/>
  <path d="M18,42 Q12,40 18,34 Q12,32 16,26" fill="none" stroke="#C0392B" stroke-width="2" stroke-linecap="round"/>
  <!-- Ember particles -->
  <circle cx="40" cy="10" r="2.5" fill="#F1C40F" opacity="0.8"/>
  <circle cx="68" cy="24" r="2" fill="#E67E22" opacity="0.7"/>
  <circle cx="68" cy="56" r="2" fill="#F1C40F" opacity="0.7"/>
  <circle cx="12" cy="40" r="2.5" fill="#E67E22" opacity="0.7"/>
  <!-- Center fire -->
  <circle cx="40" cy="40" r="8" fill="#C0392B" opacity="0.4"/>
  <circle cx="40" cy="40" r="5" fill="#E67E22" opacity="0.6"/>
  <circle cx="40" cy="40" r="3" fill="#F1C40F"/>
</svg>
