<svg xmlns="http://www.w3.org/2000/svg" viewBox="0 0 80 80" width="80" height="80">
  <!-- Trait: Zigzag Marking - body paint pattern -->
  <rect width="80" height="80" fill="#C8B89A" rx="6"/>
  <!-- Zigzag rows - tribal body paint -->
  <path d="M8,20 L18,12 L28,20 L38,12 L48,20 L58,12 L68,20 L72,16" fill="none" stroke="#5C3D1A" stroke-width="3" stroke-linecap="round" stroke-linejoin="round"/>
  <path d="M8,32 L18,24 L28,32 L38,24 L48,32 L58,24 L68,32 L72,28" fill="none" stroke="#8B6F47" stroke-width="2.5" stroke-linecap="round" stroke-linejoin="round"/>
  <path d="M8,44 L18,36 L28,44 L38,36 L48,44 L58,36 L68,44 L72,40" fill="none" stroke="#C8A84A" stroke-width="3" stroke-linecap="round" stroke-linejoin="round"/>
  <path d="M8,56 L18,48 L28,56 L38,48 L48,56 L58,48 L68,56 L72,52" fill="none" stroke="#8B6F47" stroke-width="2.5" stroke-linecap="round" stroke-linejoin="round"/>
  <path d="M8,68 L18,60 L28,68 L38,60 L48,68 L58,60 L68,68 L72,64" fill="none" stroke="#5C3D1A" stroke-width="3" stroke-linecap="round" stroke-linejoin="round"/>
</svg>
