<svg xmlns="http://www.w3.org/2000/svg" viewBox="0 0 80 80" width="80" height="80">
  <!-- Trait: Sky Mask - angular hawk/eagle mask -->
  <!-- Beak protrudes right side -->
  <path d="M14,40 Q16,22 32,18 Q50,16 58,26 L68,38 L58,42 Q50,28 36,28 Q24,30 24,40 Q24,52 36,52 Q50,52 58,42 L68,42 L58,54 Q50,64 32,62 Q16,58 14,40 Z" fill="#6B7F8E"/>
  <!-- Forehead ridge -->
  <path d="M18,34 Q32,28 46,30" fill="none" stroke="#5A6B78" stroke-width="3" stroke-linecap="round"/>
  <!-- Eye hole -->
  <circle cx="34" cy="38" r="8" fill="#1A1A2E"/>
  <circle cx="34" cy="38" r="5" fill="#C8A84A"/>
  <ellipse cx="34" cy="38" rx="2" ry="3" fill="#1A1A2E"/>
  <!-- Cheek feather marks -->
  <path d="M20,44 L28,42" stroke="#87A0B0" stroke-width="1.5" stroke-linecap="round"/>
  <path d="M18,50 L26,46" stroke="#87A0B0" stroke-width="1.5" stroke-linecap="round"/>
  <path d="M20,56 L28,50" stroke="#87A0B0" stroke-width="1.5" stroke-linecap="round"/>
  <!-- Tribal forehead lines -->
  <line x1="32" y1="20" x2="32" y2="28" stroke="#C8A84A" stroke-width="2" stroke-linecap="round"/>
  <line x1="38" y1="18" x2="38" y2="26" stroke="#C8A84A" stroke-width="2" stroke-linecap="round"/>
  <line x1="44" y1="20" x2="44" y2="28" stroke="#C8A84A" stroke-width="2" stroke-linecap="round"/>
</svg>
