<svg xmlns="http://www.w3.org/2000/svg" viewBox="0 0 400 400" width="400" height="400">
  <!-- Cracked Dry Earth Pattern Trait -->
  <rect width="400" height="400" fill="#C8903A" opacity="0.1"/>
  <!-- Crack network -->
  <path d="M100,50 Q120,80 110,120 Q100,145 130,160 Q160,175 155,210 Q150,240 180,260" fill="none" stroke="#8B5A18" stroke-width="2.5" opacity="0.5" stroke-linecap="round"/>
  <path d="M110,120 Q80,135 70,165 Q60,195 90,210" fill="none" stroke="#8B5A18" stroke-width="2" opacity="0.4" stroke-linecap="round"/>
  <path d="M130,160 Q145,180 175,175 Q205,170 220,195" fill="none" stroke="#7A4E10" stroke-width="2" opacity="0.4" stroke-linecap="round"/>
  <path d="M220,80 Q240,110 230,145 Q220,170 250,185 Q280,200 275,240" fill="none" stroke="#8B5A18" stroke-width="2.5" opacity="0.5" stroke-linecap="round"/>
  <path d="M250,185 Q275,190 290,220 Q305,250 280,270" fill="none" stroke="#7A4E10" stroke-width="2" opacity="0.4" stroke-linecap="round"/>
  <path d="M50,250 Q90,265 110,295 Q130,325 115,360" fill="none" stroke="#8B5A18" stroke-width="2.5" opacity="0.5" stroke-linecap="round"/>
  <path d="M180,260 Q200,285 185,320 Q170,355 200,375" fill="none" stroke="#7A4E10" stroke-width="2" opacity="0.4" stroke-linecap="round"/>
  <path d="M275,240 Q295,270 320,285 Q345,300 340,340" fill="none" stroke="#8B5A18" stroke-width="2.5" opacity="0.5" stroke-linecap="round"/>
  <path d="M320,130 Q345,155 355,195 Q365,235 345,260" fill="none" stroke="#7A4E10" stroke-width="2" opacity="0.4" stroke-linecap="round"/>
  <!-- Micro cracks -->
  <path d="M150,90 Q165,100 160,115" fill="none" stroke="#8B5A18" stroke-width="1" opacity="0.3"/>
  <path d="M280,150 Q295,160 290,175" fill="none" stroke="#8B5A18" stroke-width="1" opacity="0.3"/>
  <path d="M80,310 Q95,320 90,335" fill="none" stroke="#8B5A18" stroke-width="1" opacity="0.3"/>
  <path d="M235,305 Q250,315 245,330" fill="none" stroke="#8B5A18" stroke-width="1" opacity="0.3"/>
</svg>
