<svg xmlns="http://www.w3.org/2000/svg" viewBox="0 0 400 400" width="400" height="400">
  <!-- Trait: Elephant Grass - river-plants (tall Nile grass) -->
  <defs>
    <linearGradient id="grassGrad" x1="0%" y1="0%" x2="0%" y2="100%">
      <stop offset="0%" stop-color="#8BAA3A"/>
      <stop offset="60%" stop-color="#6B8A2A"/>
      <stop offset="100%" stop-color="#4A6A1A"/>
    </linearGradient>
  </defs>
  <!-- Grass blades - background layer -->
  <path d="M40 400 Q35 300 28 200 Q38 280 52 400" fill="url(#grassGrad)" opacity="0.6"/>
  <path d="M90 400 Q88 310 80 210 Q92 295 105 400" fill="url(#grassGrad)" opacity="0.6"/>
  <path d="M180 400 Q182 305 175 205 Q188 290 200 400" fill="url(#grassGrad)" opacity="0.6"/>
  <path d="M295 400 Q298 308 290 210 Q305 295 318 400" fill="url(#grassGrad)" opacity="0.6"/>
  <path d="M350 400 Q348 312 342 215 Q355 298 368 400" fill="url(#grassGrad)" opacity="0.6"/>

  <!-- Grass blades - foreground layer -->
  <path d="M60 400 Q58 318 50 225 Q42 310 30 400" fill="#7A9A32"/>
  <path d="M120 400 Q125 325 118 232 Q110 318 100 400" fill="#6A8A28"/>
  <path d="M160 400 Q158 320 150 228 Q142 312 130 400" fill="#7A9A32"/>
  <path d="M230 400 Q235 315 228 222 Q220 308 210 400" fill="#6A8A28"/>
  <path d="M270 400 Q268 320 260 228 Q252 312 242 400" fill="#7A9A32"/>
  <path d="M330 400 Q335 318 328 225 Q320 310 310 400" fill="#6A8A28"/>
  <path d="M380 400 Q378 315 370 222 Q362 308 352 400" fill="#7A9A32"/>

  <!-- Seed heads -->
  <ellipse cx="50" cy="222" rx="6" ry="20" fill="#C8A84A" opacity="0.8" transform="rotate(5 50 222)"/>
  <ellipse cx="118" cy="230" rx="7" ry="22" fill="#D0B052" opacity="0.8" transform="rotate(-3 118 230)"/>
  <ellipse cx="150" cy="225" rx="6" ry="20" fill="#C8A84A" opacity="0.8" transform="rotate(4 150 225)"/>
  <ellipse cx="228" cy="220" rx="7" ry="22" fill="#D0B052" opacity="0.8" transform="rotate(-5 228 220)"/>
  <ellipse cx="260" cy="226" rx="6" ry="20" fill="#C8A84A" opacity="0.8" transform="rotate(3 260 226)"/>
  <ellipse cx="328" cy="222" rx="7" ry="22" fill="#D0B052" opacity="0.8" transform="rotate(-4 328 222)"/>
  <ellipse cx="370" cy="219" rx="6" ry="20" fill="#C8A84A" opacity="0.8" transform="rotate(5 370 219)"/>
</svg>
