<svg xmlns="http://www.w3.org/2000/svg" viewBox="0 0 32 32" shape-rendering="crispEdges">
  <rect width="32" height="32" fill="#1a0a2e"/>
  <!-- Antennae -->
  <rect x="8" y="4" width="2" height="2" fill="#ffd700"/>
  <rect x="8" y="6" width="2" height="2" fill="#d4a017"/>
  <rect x="14" y="4" width="2" height="2" fill="#ffd700"/>
  <rect x="14" y="6" width="2" height="2" fill="#d4a017"/>
  <!-- Head -->
  <rect x="8" y="8" width="2" height="2" fill="#3d2b5e"/>
  <rect x="10" y="8" width="2" height="2" fill="#4a3568"/>
  <rect x="12" y="8" width="2" height="2" fill="#4a3568"/>
  <rect x="14" y="8" width="2" height="2" fill="#3d2b5e"/>
  <rect x="6" y="10" width="2" height="2" fill="#2d1b4e"/>
  <rect x="8" y="10" width="2" height="2" fill="#4a3568"/>
  <rect x="10" y="10" width="2" height="2" fill="#5a4578"/>
  <rect x="12" y="10" width="2" height="2" fill="#5a4578"/>
  <rect x="14" y="10" width="2" height="2" fill="#4a3568"/>
  <rect x="16" y="10" width="2" height="2" fill="#2d1b4e"/>
  <!-- Eyes -->
  <rect x="8" y="10" width="2" height="2" fill="#ffd700"/>
  <rect x="14" y="10" width="2" height="2" fill="#ffd700"/>
  <!-- Mandibles -->
  <rect x="6" y="12" width="2" height="2" fill="#d4a017"/>
  <rect x="16" y="12" width="2" height="2" fill="#d4a017"/>
  <!-- Shell (treasure) -->
  <rect x="6" y="12" width="2" height="2" fill="#b8860b"/>
  <rect x="8" y="12" width="2" height="2" fill="#ffd700"/>
  <rect x="10" y="12" width="2" height="2" fill="#d4a017"/>
  <rect x="12" y="12" width="2" height="2" fill="#d4a017"/>
  <rect x="14" y="12" width="2" height="2" fill="#ffd700"/>
  <rect x="16" y="12" width="2" height="2" fill="#b8860b"/>
  <rect x="4" y="14" width="2" height="2" fill="#b8860b"/>
  <rect x="6" y="14" width="2" height="2" fill="#d4a017"/>
  <rect x="8" y="14" width="2" height="2" fill="#ffd700"/>
  <rect x="10" y="14" width="2" height="2" fill="#ffd700"/>
  <rect x="12" y="14" width="2" height="2" fill="#ffd700"/>
  <rect x="14" y="14" width="2" height="2" fill="#ffd700"/>
  <rect x="16" y="14" width="2" height="2" fill="#d4a017"/>
  <rect x="18" y="14" width="2" height="2" fill="#b8860b"/>
  <!-- Shell center jewel -->
  <rect x="10" y="14" width="2" height="2" fill="#c0392b"/>
  <rect x="12" y="14" width="2" height="2" fill="#c0392b"/>
  <!-- Shell mid -->
  <rect x="4" y="16" width="2" height="2" fill="#d4a017"/>
  <rect x="6" y="16" width="2" height="2" fill="#ffd700"/>
  <rect x="8" y="16" width="2" height="2" fill="#d4a017"/>
  <rect x="10" y="16" width="2" height="2" fill="#ffd700"/>
  <rect x="12" y="16" width="2" height="2" fill="#ffd700"/>
  <rect x="14" y="16" width="2" height="2" fill="#d4a017"/>
  <rect x="16" y="16" width="2" height="2" fill="#ffd700"/>
  <rect x="18" y="16" width="2" height="2" fill="#d4a017"/>
  <!-- Shell bottom -->
  <rect x="6" y="18" width="2" height="2" fill="#b8860b"/>
  <rect x="8" y="18" width="2" height="2" fill="#d4a017"/>
  <rect x="10" y="18" width="2" height="2" fill="#ffd700"/>
  <rect x="12" y="18" width="2" height="2" fill="#ffd700"/>
  <rect x="14" y="18" width="2" height="2" fill="#d4a017"/>
  <rect x="16" y="18" width="2" height="2" fill="#b8860b"/>
  <rect x="8" y="20" width="2" height="2" fill="#b8860b"/>
  <rect x="10" y="20" width="2" height="2" fill="#d4a017"/>
  <rect x="12" y="20" width="2" height="2" fill="#d4a017"/>
  <rect x="14" y="20" width="2" height="2" fill="#b8860b"/>
  <!-- Legs left -->
  <rect x="4" y="14" width="2" height="2" fill="#4a3568"/>
  <rect x="2" y="16" width="2" height="2" fill="#4a3568"/>
  <rect x="2" y="18" width="2" height="2" fill="#3d2b5e"/>
  <rect x="4" y="18" width="2" height="2" fill="#4a3568"/>
  <!-- Legs right -->
  <rect x="18" y="14" width="2" height="2" fill="#4a3568"/>
  <rect x="20" y="16" width="2" height="2" fill="#4a3568"/>
  <rect x="20" y="18" width="2" height="2" fill="#3d2b5e"/>
  <rect x="18" y="18" width="2" height="2" fill="#4a3568"/>
  <!-- Ground -->
  <rect x="0" y="22" width="32" height="10" fill="#2d1b4e"/>
</svg>
