<svg xmlns="http://www.w3.org/2000/svg" viewBox="0 0 32 32" shape-rendering="crispEdges">
  <rect width="32" height="32" fill="#1a0a2e"/>
  <!-- Snout top -->
  <rect x="2" y="8" width="2" height="2" fill="#4a7a3e"/>
  <rect x="4" y="8" width="2" height="2" fill="#5a8f4a"/>
  <rect x="6" y="8" width="2" height="2" fill="#5a8f4a"/>
  <rect x="8" y="6" width="2" height="2" fill="#4a7a3e"/>
  <rect x="8" y="8" width="2" height="2" fill="#6ba35a"/>
  <!-- Teeth top -->
  <rect x="2" y="10" width="2" height="2" fill="#ffd700"/>
  <rect x="4" y="10" width="2" height="2" fill="#ffffff"/>
  <rect x="6" y="10" width="2" height="2" fill="#ffd700"/>
  <!-- Head -->
  <rect x="10" y="4" width="2" height="2" fill="#d4a017"/>
  <rect x="12" y="4" width="2" height="2" fill="#5a8f4a"/>
  <rect x="14" y="4" width="2" height="2" fill="#4a7a3e"/>
  <rect x="10" y="6" width="2" height="2" fill="#ffd700"/>
  <rect x="12" y="6" width="2" height="2" fill="#6ba35a"/>
  <rect x="14" y="6" width="2" height="2" fill="#5a8f4a"/>
  <rect x="16" y="6" width="2" height="2" fill="#4a7a3e"/>
  <rect x="10" y="8" width="2" height="2" fill="#6ba35a"/>
  <rect x="12" y="8" width="2" height="2" fill="#5a8f4a"/>
  <rect x="14" y="8" width="2" height="2" fill="#ffd700"/>
  <rect x="16" y="8" width="2" height="2" fill="#5a8f4a"/>
  <!-- Golden jaw -->
  <rect x="2" y="12" width="2" height="2" fill="#d4a017"/>
  <rect x="4" y="12" width="2" height="2" fill="#ffd700"/>
  <rect x="6" y="12" width="2" height="2" fill="#d4a017"/>
  <rect x="8" y="10" width="2" height="2" fill="#6ba35a"/>
  <rect x="8" y="12" width="2" height="2" fill="#ffd700"/>
  <rect x="10" y="10" width="2" height="2" fill="#5a8f4a"/>
  <rect x="10" y="12" width="2" height="2" fill="#d4a017"/>
  <rect x="12" y="10" width="2" height="2" fill="#6ba35a"/>
  <rect x="12" y="12" width="2" height="2" fill="#5a8f4a"/>
  <rect x="14" y="10" width="2" height="2" fill="#5a8f4a"/>
  <rect x="14" y="12" width="2" height="2" fill="#4a7a3e"/>
  <rect x="4" y="14" width="2" height="2" fill="#ffd700"/>
  <!-- Spine ridges gold -->
  <rect x="18" y="8" width="2" height="2" fill="#ffd700"/>
  <rect x="22" y="8" width="2" height="2" fill="#ffd700"/>
  <!-- Body -->
  <rect x="16" y="10" width="2" height="2" fill="#5a8f4a"/>
  <rect x="16" y="12" width="2" height="2" fill="#6ba35a"/>
  <rect x="18" y="10" width="2" height="2" fill="#4a7a3e"/>
  <rect x="18" y="12" width="2" height="2" fill="#5a8f4a"/>
  <rect x="20" y="10" width="2" height="2" fill="#5a8f4a"/>
  <rect x="20" y="12" width="2" height="2" fill="#6ba35a"/>
  <rect x="14" y="14" width="2" height="2" fill="#5a8f4a"/>
  <rect x="16" y="14" width="2" height="2" fill="#6ba35a"/>
  <rect x="18" y="14" width="2" height="2" fill="#5a8f4a"/>
  <rect x="20" y="14" width="2" height="2" fill="#4a7a3e"/>
  <!-- Tail -->
  <rect x="22" y="10" width="2" height="2" fill="#5a8f4a"/>
  <rect x="22" y="12" width="2" height="2" fill="#4a7a3e"/>
  <rect x="24" y="10" width="2" height="2" fill="#4a7a3e"/>
  <rect x="24" y="12" width="2" height="2" fill="#5a8f4a"/>
  <rect x="26" y="12" width="2" height="2" fill="#4a7a3e"/>
  <rect x="26" y="10" width="2" height="2" fill="#d4a017"/>
  <rect x="28" y="12" width="2" height="2" fill="#ffd700"/>
  <!-- Front legs -->
  <rect x="12" y="14" width="2" height="2" fill="#5a8f4a"/>
  <rect x="12" y="16" width="2" height="2" fill="#4a7a3e"/>
  <rect x="12" y="18" width="2" height="2" fill="#ffd700"/>
  <rect x="10" y="18" width="2" height="2" fill="#d4a017"/>
  <!-- Hind legs -->
  <rect x="20" y="16" width="2" height="2" fill="#4a7a3e"/>
  <rect x="20" y="18" width="2" height="2" fill="#5a8f4a"/>
  <rect x="20" y="20" width="2" height="2" fill="#ffd700"/>
  <rect x="18" y="20" width="2" height="2" fill="#d4a017"/>
  <!-- Ground -->
  <rect x="0" y="22" width="32" height="10" fill="#2d1b4e"/>
</svg>
