<svg xmlns="http://www.w3.org/2000/svg" viewBox="0 0 32 32" shape-rendering="crispEdges">
  <rect width="32" height="32" fill="#1a0a2e"/>
  <!-- Head -->
  <rect x="6" y="6" width="2" height="2" fill="#4a3728"/>
  <rect x="8" y="4" width="2" height="2" fill="#5c4033"/>
  <rect x="10" y="4" width="2" height="2" fill="#6b4e37"/>
  <rect x="12" y="4" width="2" height="2" fill="#5c4033"/>
  <rect x="8" y="6" width="2" height="2" fill="#6b4e37"/>
  <rect x="10" y="6" width="2" height="2" fill="#8b6844"/>
  <rect x="12" y="6" width="2" height="2" fill="#6b4e37"/>
  <rect x="14" y="6" width="2" height="2" fill="#5c4033"/>
  <!-- Eye -->
  <rect x="8" y="8" width="2" height="2" fill="#ffd700"/>
  <rect x="10" y="8" width="2" height="2" fill="#6b4e37"/>
  <!-- Beak -->
  <rect x="4" y="8" width="2" height="2" fill="#d4a017"/>
  <rect x="6" y="8" width="2" height="2" fill="#ffd700"/>
  <rect x="2" y="10" width="2" height="2" fill="#b8860b"/>
  <rect x="4" y="10" width="2" height="2" fill="#b8860b"/>
  <rect x="6" y="10" width="2" height="2" fill="#d4a017"/>
  <!-- Crest -->
  <rect x="10" y="2" width="2" height="2" fill="#ffd700"/>
  <rect x="12" y="2" width="2" height="2" fill="#d4a017"/>
  <rect x="14" y="4" width="2" height="2" fill="#ffd700"/>
  <!-- Neck -->
  <rect x="8" y="10" width="2" height="2" fill="#8b6844"/>
  <rect x="10" y="10" width="2" height="2" fill="#6b4e37"/>
  <rect x="12" y="8" width="2" height="2" fill="#5c4033"/>
  <rect x="12" y="10" width="2" height="2" fill="#6b4e37"/>
  <!-- Body -->
  <rect x="8" y="12" width="2" height="2" fill="#5c4033"/>
  <rect x="10" y="12" width="2" height="2" fill="#8b6844"/>
  <rect x="12" y="12" width="2" height="2" fill="#6b4e37"/>
  <rect x="14" y="10" width="2" height="2" fill="#5c4033"/>
  <rect x="14" y="12" width="2" height="2" fill="#8b6844"/>
  <rect x="16" y="12" width="2" height="2" fill="#6b4e37"/>
  <rect x="10" y="14" width="2" height="2" fill="#6b4e37"/>
  <rect x="12" y="14" width="2" height="2" fill="#8b6844"/>
  <rect x="14" y="14" width="2" height="2" fill="#6b4e37"/>
  <rect x="16" y="14" width="2" height="2" fill="#5c4033"/>
  <!-- Wing -->
  <rect x="16" y="8" width="2" height="2" fill="#ffd700"/>
  <rect x="18" y="8" width="2" height="2" fill="#d4a017"/>
  <rect x="18" y="10" width="2" height="2" fill="#ffd700"/>
  <rect x="20" y="10" width="2" height="2" fill="#d4a017"/>
  <rect x="20" y="8" width="2" height="2" fill="#b8860b"/>
  <rect x="22" y="10" width="2" height="2" fill="#ffd700"/>
  <rect x="22" y="12" width="2" height="2" fill="#d4a017"/>
  <rect x="24" y="12" width="2" height="2" fill="#b8860b"/>
  <rect x="18" y="12" width="2" height="2" fill="#d4a017"/>
  <rect x="20" y="12" width="2" height="2" fill="#ffd700"/>
  <rect x="18" y="14" width="2" height="2" fill="#b8860b"/>
  <rect x="20" y="14" width="2" height="2" fill="#d4a017"/>
  <!-- Tail feathers -->
  <rect x="22" y="14" width="2" height="2" fill="#ffd700"/>
  <rect x="24" y="14" width="2" height="2" fill="#d4a017"/>
  <rect x="26" y="14" width="2" height="2" fill="#7b2d8e"/>
  <!-- Legs -->
  <rect x="10" y="16" width="2" height="2" fill="#d4a017"/>
  <rect x="14" y="16" width="2" height="2" fill="#d4a017"/>
  <rect x="10" y="18" width="2" height="2" fill="#ffd700"/>
  <rect x="14" y="18" width="2" height="2" fill="#ffd700"/>
  <!-- Talons -->
  <rect x="8" y="20" width="2" height="2" fill="#ffd700"/>
  <rect x="10" y="20" width="2" height="2" fill="#d4a017"/>
  <rect x="12" y="20" width="2" height="2" fill="#ffd700"/>
  <rect x="14" y="20" width="2" height="2" fill="#d4a017"/>
  <rect x="16" y="20" width="2" height="2" fill="#ffd700"/>
  <rect x="8" y="22" width="2" height="2" fill="#b8860b"/>
  <rect x="12" y="22" width="2" height="2" fill="#b8860b"/>
  <rect x="16" y="22" width="2" height="2" fill="#b8860b"/>
  <!-- Ground -->
  <rect x="0" y="24" width="32" height="8" fill="#2d1b4e"/>
</svg>
