<svg xmlns="http://www.w3.org/2000/svg" viewBox="0 0 32 32" shape-rendering="crispEdges">
  <rect width="32" height="32" fill="#1a0a2e"/>
  <!-- Mane gold halo -->
  <rect x="6" y="4" width="2" height="2" fill="#d4a017"/>
  <rect x="8" y="2" width="2" height="2" fill="#d4a017"/>
  <rect x="10" y="2" width="2" height="2" fill="#ffd700"/>
  <rect x="12" y="2" width="2" height="2" fill="#d4a017"/>
  <rect x="14" y="2" width="2" height="2" fill="#ffd700"/>
  <rect x="16" y="2" width="2" height="2" fill="#d4a017"/>
  <rect x="18" y="4" width="2" height="2" fill="#d4a017"/>
  <rect x="4" y="6" width="2" height="2" fill="#ffd700"/>
  <rect x="4" y="8" width="2" height="2" fill="#d4a017"/>
  <rect x="4" y="10" width="2" height="2" fill="#ffd700"/>
  <rect x="4" y="12" width="2" height="2" fill="#d4a017"/>
  <rect x="20" y="6" width="2" height="2" fill="#ffd700"/>
  <rect x="20" y="8" width="2" height="2" fill="#d4a017"/>
  <rect x="20" y="10" width="2" height="2" fill="#ffd700"/>
  <rect x="6" y="14" width="2" height="2" fill="#d4a017"/>
  <!-- Crown -->
  <rect x="10" y="0" width="2" height="2" fill="#ffd700"/>
  <rect x="12" y="0" width="2" height="2" fill="#c0392b"/>
  <rect x="14" y="0" width="2" height="2" fill="#ffd700"/>
  <!-- Head -->
  <rect x="8" y="4" width="2" height="2" fill="#c8943e"/>
  <rect x="10" y="4" width="2" height="2" fill="#c8943e"/>
  <rect x="12" y="4" width="2" height="2" fill="#c8943e"/>
  <rect x="14" y="4" width="2" height="2" fill="#c8943e"/>
  <rect x="16" y="4" width="2" height="2" fill="#c8943e"/>
  <rect x="6" y="6" width="2" height="2" fill="#c8943e"/>
  <rect x="8" y="6" width="2" height="2" fill="#daa550"/>
  <rect x="10" y="6" width="2" height="2" fill="#daa550"/>
  <rect x="12" y="6" width="2" height="2" fill="#daa550"/>
  <rect x="14" y="6" width="2" height="2" fill="#daa550"/>
  <rect x="16" y="6" width="2" height="2" fill="#daa550"/>
  <rect x="18" y="6" width="2" height="2" fill="#c8943e"/>
  <!-- Eyes -->
  <rect x="8" y="8" width="2" height="2" fill="#7b2d8e"/>
  <rect x="14" y="8" width="2" height="2" fill="#7b2d8e"/>
  <!-- Snout -->
  <rect x="10" y="8" width="2" height="2" fill="#daa550"/>
  <rect x="12" y="8" width="2" height="2" fill="#daa550"/>
  <rect x="10" y="10" width="2" height="2" fill="#b87a2e"/>
  <rect x="12" y="10" width="2" height="2" fill="#b87a2e"/>
  <!-- Lower face -->
  <rect x="6" y="10" width="2" height="2" fill="#daa550"/>
  <rect x="8" y="10" width="2" height="2" fill="#daa550"/>
  <rect x="14" y="10" width="2" height="2" fill="#daa550"/>
  <rect x="16" y="10" width="2" height="2" fill="#daa550"/>
  <rect x="18" y="10" width="2" height="2" fill="#c8943e"/>
  <rect x="6" y="12" width="2" height="2" fill="#c8943e"/>
  <rect x="8" y="12" width="2" height="2" fill="#c8943e"/>
  <rect x="10" y="12" width="2" height="2" fill="#daa550"/>
  <rect x="12" y="12" width="2" height="2" fill="#daa550"/>
  <rect x="14" y="12" width="2" height="2" fill="#c8943e"/>
  <rect x="16" y="12" width="2" height="2" fill="#c8943e"/>
  <rect x="18" y="12" width="2" height="2" fill="#c8943e"/>
  <!-- Body -->
  <rect x="8" y="14" width="2" height="2" fill="#c8943e"/>
  <rect x="10" y="14" width="2" height="2" fill="#daa550"/>
  <rect x="12" y="14" width="2" height="2" fill="#daa550"/>
  <rect x="14" y="14" width="2" height="2" fill="#daa550"/>
  <rect x="16" y="14" width="2" height="2" fill="#c8943e"/>
  <rect x="8" y="16" width="2" height="2" fill="#daa550"/>
  <rect x="10" y="16" width="2" height="2" fill="#daa550"/>
  <rect x="12" y="16" width="2" height="2" fill="#c8943e"/>
  <rect x="14" y="16" width="2" height="2" fill="#c8943e"/>
  <rect x="16" y="16" width="2" height="2" fill="#daa550"/>
  <!-- Front legs -->
  <rect x="8" y="18" width="2" height="2" fill="#c8943e"/>
  <rect x="10" y="18" width="2" height="2" fill="#c8943e"/>
  <rect x="8" y="20" width="2" height="2" fill="#daa550"/>
  <rect x="10" y="20" width="2" height="2" fill="#daa550"/>
  <rect x="8" y="22" width="2" height="2" fill="#daa550"/>
  <rect x="10" y="22" width="2" height="2" fill="#daa550"/>
  <!-- Hind legs -->
  <rect x="14" y="18" width="2" height="2" fill="#c8943e"/>
  <rect x="16" y="18" width="2" height="2" fill="#c8943e"/>
  <rect x="14" y="20" width="2" height="2" fill="#daa550"/>
  <rect x="16" y="20" width="2" height="2" fill="#daa550"/>
  <rect x="14" y="22" width="2" height="2" fill="#daa550"/>
  <rect x="16" y="22" width="2" height="2" fill="#daa550"/>
  <!-- Paws -->
  <rect x="8" y="24" width="2" height="2" fill="#b87a2e"/>
  <rect x="10" y="24" width="2" height="2" fill="#b87a2e"/>
  <rect x="14" y="24" width="2" height="2" fill="#b87a2e"/>
  <rect x="16" y="24" width="2" height="2" fill="#b87a2e"/>
  <!-- Tail -->
  <rect x="18" y="14" width="2" height="2" fill="#d4a017"/>
  <rect x="20" y="12" width="2" height="2" fill="#d4a017"/>
  <rect x="22" y="10" width="2" height="2" fill="#ffd700"/>
  <rect x="24" y="10" width="2" height="2" fill="#ffd700"/>
  <!-- Ground -->
  <rect x="0" y="26" width="32" height="6" fill="#2d1b4e"/>
</svg>
