<svg xmlns="http://www.w3.org/2000/svg" viewBox="0 0 200 200" width="200" height="200">
  <rect width="200" height="200" fill="#0d0a14"/>
  <!-- Antennae -->
  <rect x="72" y="20" width="4" height="10" fill="#1a1a2e"/>
  <rect x="68" y="15" width="4" height="8" fill="#2d1b4e"/>
  <rect x="64" y="10" width="6" height="6" fill="#4a2068"/>
  <rect x="124" y="20" width="4" height="10" fill="#1a1a2e"/>
  <rect x="128" y="15" width="4" height="8" fill="#2d1b4e"/>
  <rect x="130" y="10" width="6" height="6" fill="#4a2068"/>
  <!-- Head -->
  <rect x="75" y="30" width="50" height="10" fill="#1a1030"/>
  <rect x="70" y="40" width="60" height="12" fill="#221640"/>
  <rect x="72" y="52" width="56" height="8" fill="#1a1030"/>
  <!-- Mandibles -->
  <rect x="65" y="52" width="8" height="10" fill="#2d1b4e"/>
  <rect x="60" y="55" width="8" height="6" fill="#3b1f5e"/>
  <rect x="127" y="52" width="8" height="10" fill="#2d1b4e"/>
  <rect x="132" y="55" width="8" height="6" fill="#3b1f5e"/>
  <!-- Eyes -->
  <rect x="78" y="42" width="10" height="8" fill="#0d0d1a"/>
  <rect x="112" y="42" width="10" height="8" fill="#0d0d1a"/>
  <rect x="80" y="43" width="6" height="6" fill="#9900cc"/>
  <rect x="114" y="43" width="6" height="6" fill="#9900cc"/>
  <rect x="82" y="44" width="3" height="4" fill="#cc66ff"/>
  <rect x="116" y="44" width="3" height="4" fill="#cc66ff"/>
  <!-- Thorax -->
  <rect x="68" y="62" width="64" height="10" fill="#221640"/>
  <rect x="65" y="72" width="70" height="10" fill="#1a1030"/>
  <!-- Carapace/Elytra -->
  <rect x="60" y="82" width="80" height="10" fill="#221640"/>
  <rect x="58" y="92" width="84" height="10" fill="#1a1030"/>
  <rect x="58" y="102" width="84" height="10" fill="#221640"/>
  <rect x="60" y="112" width="80" height="10" fill="#1a1030"/>
  <rect x="65" y="122" width="70" height="10" fill="#221640"/>
  <rect x="70" y="132" width="60" height="8" fill="#1a1030"/>
  <!-- Carapace split line -->
  <rect x="99" y="82" width="2" height="58" fill="#0d0a14"/>
  <!-- Carapace sheen -->
  <rect x="68" y="86" width="20" height="4" fill="#2d1b4e" opacity="0.5"/>
  <rect x="70" y="96" width="18" height="4" fill="#2d1b4e" opacity="0.4"/>
  <rect x="112" y="86" width="20" height="4" fill="#2d1b4e" opacity="0.5"/>
  <rect x="114" y="96" width="18" height="4" fill="#2d1b4e" opacity="0.4"/>
  <!-- Legs (3 pairs) -->
  <rect x="50" y="75" width="10" height="6" fill="#1a1030"/>
  <rect x="42" y="78" width="10" height="6" fill="#221640"/>
  <rect x="38" y="84" width="6" height="10" fill="#1a1030"/>
  <rect x="140" y="75" width="10" height="6" fill="#1a1030"/>
  <rect x="148" y="78" width="10" height="6" fill="#221640"/>
  <rect x="156" y="84" width="6" height="10" fill="#1a1030"/>
  <rect x="48" y="95" width="10" height="6" fill="#1a1030"/>
  <rect x="40" y="98" width="10" height="6" fill="#221640"/>
  <rect x="34" y="104" width="6" height="10" fill="#1a1030"/>
  <rect x="142" y="95" width="10" height="6" fill="#1a1030"/>
  <rect x="150" y="98" width="10" height="6" fill="#221640"/>
  <rect x="160" y="104" width="6" height="10" fill="#1a1030"/>
  <rect x="52" y="115" width="10" height="6" fill="#1a1030"/>
  <rect x="44" y="118" width="10" height="6" fill="#221640"/>
  <rect x="38" y="124" width="6" height="10" fill="#1a1030"/>
  <rect x="138" y="115" width="10" height="6" fill="#1a1030"/>
  <rect x="146" y="118" width="10" height="6" fill="#221640"/>
  <rect x="156" y="124" width="6" height="10" fill="#1a1030"/>
  <!-- Horn -->
  <rect x="95" y="22" width="10" height="10" fill="#3b1f5e"/>
  <rect x="97" y="14" width="6" height="10" fill="#2d1b4e"/>
  <rect x="99" y="8" width="4" height="8" fill="#4a2068"/>
</svg>
