<svg xmlns="http://www.w3.org/2000/svg" viewBox="0 0 200 200" width="200" height="200">
  <rect width="200" height="200" fill="#0a0d0a"/>
  <!-- Swamp water base -->
  <rect x="0" y="150" width="200" height="50" fill="#0d1a0d" opacity="0.6"/>
  <rect x="10" y="155" width="30" height="3" fill="#1a2e1a" opacity="0.4"/>
  <rect x="80" y="160" width="40" height="3" fill="#1a2e1a" opacity="0.4"/>
  <rect x="150" y="158" width="25" height="3" fill="#1a2e1a" opacity="0.4"/>
  <!-- Long snout -->
  <rect x="10" y="60" width="10" height="8" fill="#1a2e1a"/>
  <rect x="20" y="58" width="10" height="12" fill="#1e3520"/>
  <rect x="30" y="56" width="10" height="14" fill="#1a2e1a"/>
  <rect x="40" y="55" width="10" height="16" fill="#1e3520"/>
  <rect x="50" y="54" width="10" height="18" fill="#1a2e1a"/>
  <!-- Teeth -->
  <rect x="12" y="68" width="4" height="6" fill="#d4d4d4"/>
  <rect x="22" y="70" width="4" height="5" fill="#d4d4d4"/>
  <rect x="32" y="70" width="4" height="5" fill="#d4d4d4"/>
  <rect x="42" y="70" width="4" height="5" fill="#d4d4d4"/>
  <rect x="14" y="58" width="4" height="5" fill="#d4d4d4"/>
  <rect x="24" y="56" width="4" height="5" fill="#d4d4d4"/>
  <rect x="34" y="55" width="4" height="5" fill="#d4d4d4"/>
  <!-- Head -->
  <rect x="60" y="50" width="30" height="25" fill="#1e3520"/>
  <rect x="55" y="48" width="35" height="8" fill="#1a2e1a"/>
  <!-- Eyes on top (croc style) -->
  <rect x="62" y="42" width="10" height="10" fill="#1a2e1a"/>
  <rect x="78" y="42" width="10" height="10" fill="#1a2e1a"/>
  <rect x="64" y="43" width="6" height="6" fill="#ccff00"/>
  <rect x="80" y="43" width="6" height="6" fill="#ccff00"/>
  <rect x="66" y="44" width="3" height="4" fill="#1a0a00"/>
  <rect x="82" y="44" width="3" height="4" fill="#1a0a00"/>
  <!-- Body -->
  <rect x="60" y="75" width="50" height="10" fill="#1a2e1a"/>
  <rect x="55" y="85" width="60" height="10" fill="#1e3520"/>
  <rect x="55" y="95" width="65" height="10" fill="#1a2e1a"/>
  <rect x="60" y="105" width="65" height="10" fill="#1e3520"/>
  <rect x="65" y="115" width="65" height="10" fill="#1a2e1a"/>
  <!-- Scute ridges -->
  <rect x="70" y="72" width="8" height="5" fill="#2d4a30"/>
  <rect x="82" y="72" width="8" height="5" fill="#2d4a30"/>
  <rect x="94" y="72" width="8" height="5" fill="#2d4a30"/>
  <rect x="75" y="82" width="8" height="5" fill="#2d4a30"/>
  <rect x="87" y="82" width="8" height="5" fill="#2d4a30"/>
  <rect x="99" y="82" width="8" height="5" fill="#2d4a30"/>
  <!-- Legs -->
  <rect x="62" y="108" width="12" height="15" fill="#1e3520"/>
  <rect x="58" y="123" width="18" height="8" fill="#1a2e1a"/>
  <rect x="55" y="131" width="8" height="6" fill="#0d1a0d"/>
  <rect x="63" y="131" width="8" height="6" fill="#0d1a0d"/>
  <rect x="71" y="131" width="8" height="6" fill="#0d1a0d"/>
  <rect x="108" y="115" width="12" height="15" fill="#1e3520"/>
  <rect x="104" y="130" width="18" height="8" fill="#1a2e1a"/>
  <rect x="101" y="138" width="8" height="6" fill="#0d1a0d"/>
  <rect x="109" y="138" width="8" height="6" fill="#0d1a0d"/>
  <rect x="117" y="138" width="8" height="6" fill="#0d1a0d"/>
  <!-- Tail -->
  <rect x="130" y="115" width="10" height="10" fill="#1a2e1a"/>
  <rect x="140" y="112" width="10" height="10" fill="#1e3520"/>
  <rect x="150" y="108" width="10" height="10" fill="#1a2e1a"/>
  <rect x="160" y="105" width="10" height="8" fill="#1e3520"/>
  <rect x="170" y="102" width="10" height="6" fill="#1a2e1a"/>
  <rect x="178" y="100" width="8" height="5" fill="#142414"/>
</svg>
