<svg xmlns="http://www.w3.org/2000/svg" viewBox="0 0 200 200" width="200" height="200">
  <rect width="200" height="200" fill="#0a0a1e"/>
  <!-- Wing left spread -->
  <rect x="15" y="60" width="10" height="10" fill="#1a1a35"/>
  <rect x="25" y="55" width="10" height="10" fill="#222245"/>
  <rect x="35" y="50" width="10" height="10" fill="#1a1a35"/>
  <rect x="15" y="70" width="10" height="10" fill="#222245"/>
  <rect x="25" y="65" width="10" height="10" fill="#1a1a35"/>
  <rect x="35" y="60" width="10" height="10" fill="#222245"/>
  <rect x="45" y="55" width="10" height="10" fill="#1a1a35"/>
  <rect x="45" y="65" width="10" height="10" fill="#222245"/>
  <rect x="55" y="60" width="10" height="10" fill="#1a1a35"/>
  <rect x="55" y="70" width="10" height="10" fill="#222245"/>
  <!-- Wing right spread -->
  <rect x="175" y="60" width="10" height="10" fill="#1a1a35"/>
  <rect x="165" y="55" width="10" height="10" fill="#222245"/>
  <rect x="155" y="50" width="10" height="10" fill="#1a1a35"/>
  <rect x="175" y="70" width="10" height="10" fill="#222245"/>
  <rect x="165" y="65" width="10" height="10" fill="#1a1a35"/>
  <rect x="155" y="60" width="10" height="10" fill="#222245"/>
  <rect x="145" y="55" width="10" height="10" fill="#1a1a35"/>
  <rect x="145" y="65" width="10" height="10" fill="#222245"/>
  <rect x="135" y="60" width="10" height="10" fill="#1a1a35"/>
  <rect x="135" y="70" width="10" height="10" fill="#222245"/>
  <!-- Head -->
  <rect x="80" y="30" width="40" height="10" fill="#1a1a35"/>
  <rect x="75" y="40" width="50" height="10" fill="#222245"/>
  <rect x="75" y="50" width="50" height="10" fill="#1a1a35"/>
  <rect x="80" y="60" width="40" height="8" fill="#222245"/>
  <!-- Beak -->
  <rect x="120" y="45" width="15" height="6" fill="#3d2a00"/>
  <rect x="135" y="47" width="10" height="4" fill="#4d3500"/>
  <rect x="145" y="48" width="8" height="3" fill="#3d2a00"/>
  <rect x="120" y="51" width="12" height="5" fill="#2a1d00"/>
  <!-- Eyes -->
  <rect x="85" y="44" width="10" height="8" fill="#0d0d1a"/>
  <rect x="105" y="44" width="10" height="8" fill="#0d0d1a"/>
  <rect x="87" y="45" width="6" height="6" fill="#ff3300"/>
  <rect x="107" y="45" width="6" height="6" fill="#ff3300"/>
  <rect x="89" y="46" width="3" height="4" fill="#ff9900"/>
  <rect x="109" y="46" width="3" height="4" fill="#ff9900"/>
  <!-- Body -->
  <rect x="70" y="75" width="60" height="10" fill="#1a1a35"/>
  <rect x="65" y="85" width="70" height="10" fill="#222245"/>
  <rect x="65" y="95" width="70" height="10" fill="#1a1a35"/>
  <rect x="70" y="105" width="60" height="10" fill="#222245"/>
  <rect x="75" y="115" width="50" height="10" fill="#1a1a35"/>
  <!-- Chest lighter -->
  <rect x="85" y="80" width="30" height="8" fill="#2d2d50"/>
  <rect x="88" y="88" width="24" height="8" fill="#2d2d50"/>
  <!-- Tail feathers -->
  <rect x="80" y="125" width="15" height="10" fill="#222245"/>
  <rect x="95" y="125" width="15" height="10" fill="#1a1a35"/>
  <rect x="78" y="135" width="12" height="10" fill="#1a1a35"/>
  <rect x="98" y="135" width="12" height="10" fill="#222245"/>
  <rect x="82" y="145" width="8" height="8" fill="#2d1b4e"/>
  <rect x="100" y="145" width="8" height="8" fill="#2d1b4e"/>
  <!-- Talons -->
  <rect x="78" y="150" width="8" height="10" fill="#222245"/>
  <rect x="114" y="150" width="8" height="10" fill="#222245"/>
  <rect x="74" y="160" width="6" height="8" fill="#3d2a00"/>
  <rect x="80" y="160" width="6" height="8" fill="#3d2a00"/>
  <rect x="110" y="160" width="6" height="8" fill="#3d2a00"/>
  <rect x="116" y="160" width="6" height="8" fill="#3d2a00"/>
  <rect x="72" y="168" width="4" height="5" fill="#2a1d00"/>
  <rect x="82" y="168" width="4" height="5" fill="#2a1d00"/>
  <rect x="108" y="168" width="4" height="5" fill="#2a1d00"/>
  <rect x="118" y="168" width="4" height="5" fill="#2a1d00"/>
</svg>
