<svg xmlns="http://www.w3.org/2000/svg" viewBox="0 0 200 200" width="200" height="200">
  <rect width="200" height="200" fill="#1a0a2e"/>
  <!-- Mane -->
  <rect x="50" y="40" width="10" height="10" fill="#2d1b4e"/>
  <rect x="60" y="30" width="10" height="10" fill="#3b1f5e"/>
  <rect x="70" y="25" width="10" height="10" fill="#2d1b4e"/>
  <rect x="80" y="20" width="10" height="10" fill="#3b1f5e"/>
  <rect x="90" y="20" width="10" height="10" fill="#4a2068"/>
  <rect x="100" y="20" width="10" height="10" fill="#3b1f5e"/>
  <rect x="110" y="25" width="10" height="10" fill="#2d1b4e"/>
  <rect x="120" y="30" width="10" height="10" fill="#3b1f5e"/>
  <rect x="130" y="40" width="10" height="10" fill="#2d1b4e"/>
  <rect x="40" y="50" width="10" height="10" fill="#3b1f5e"/>
  <rect x="50" y="50" width="10" height="10" fill="#4a2068"/>
  <rect x="130" y="50" width="10" height="10" fill="#4a2068"/>
  <rect x="140" y="50" width="10" height="10" fill="#3b1f5e"/>
  <rect x="40" y="60" width="10" height="10" fill="#2d1b4e"/>
  <rect x="140" y="60" width="10" height="10" fill="#2d1b4e"/>
  <!-- Head -->
  <rect x="60" y="40" width="70" height="10" fill="#2a1a3e"/>
  <rect x="60" y="50" width="70" height="10" fill="#2a1a3e"/>
  <rect x="60" y="60" width="70" height="10" fill="#2a1a3e"/>
  <rect x="70" y="35" width="50" height="5" fill="#2a1a3e"/>
  <!-- Eyes -->
  <rect x="75" y="48" width="12" height="8" fill="#0d0d1a"/>
  <rect x="103" y="48" width="12" height="8" fill="#0d0d1a"/>
  <rect x="77" y="49" width="8" height="6" fill="#bf00ff"/>
  <rect x="105" y="49" width="8" height="6" fill="#bf00ff"/>
  <rect x="79" y="50" width="4" height="4" fill="#ff66ff"/>
  <rect x="107" y="50" width="4" height="4" fill="#ff66ff"/>
  <!-- Snout -->
  <rect x="75" y="70" width="40" height="10" fill="#231535"/>
  <rect x="85" y="80" width="20" height="8" fill="#1e1230"/>
  <rect x="90" y="72" width="10" height="6" fill="#0d0d1a"/>
  <!-- Fangs -->
  <rect x="82" y="80" width="4" height="8" fill="#d4d4e8"/>
  <rect x="104" y="80" width="4" height="8" fill="#d4d4e8"/>
  <!-- Body -->
  <rect x="55" y="88" width="80" height="10" fill="#231535"/>
  <rect x="50" y="98" width="85" height="10" fill="#1e1230"/>
  <rect x="50" y="108" width="85" height="10" fill="#231535"/>
  <rect x="50" y="118" width="80" height="10" fill="#1e1230"/>
  <rect x="55" y="128" width="70" height="10" fill="#231535"/>
  <!-- Front legs -->
  <rect x="58" y="138" width="14" height="12" fill="#231535"/>
  <rect x="58" y="150" width="14" height="12" fill="#1e1230"/>
  <rect x="55" y="162" width="18" height="8" fill="#0d0d1a"/>
  <!-- Back legs -->
  <rect x="108" y="138" width="14" height="12" fill="#231535"/>
  <rect x="108" y="150" width="14" height="12" fill="#1e1230"/>
  <rect x="105" y="162" width="18" height="8" fill="#0d0d1a"/>
  <!-- Tail -->
  <rect x="135" y="108" width="10" height="10" fill="#231535"/>
  <rect x="145" y="98" width="10" height="10" fill="#1e1230"/>
  <rect x="150" y="88" width="10" height="10" fill="#3b1f5e"/>
  <rect x="155" y="78" width="12" height="12" fill="#4a2068"/>
</svg>
