<svg xmlns="http://www.w3.org/2000/svg" viewBox="0 0 400 400" width="400" height="400">
  <defs>
    <filter id="maskGlow"><feGaussianBlur stdDeviation="3" result="b"/><feMerge><feMergeNode in="b"/><feMergeNode in="SourceGraphic"/></feMerge></filter>
  </defs>
  <rect width="400" height="400" fill="none"/>
  <!-- Mask base -->
  <path d="M200,60 Q270,62 295,100 Q320,138 318,200 Q316,255 295,295 Q275,330 200,340 Q125,330 105,295 Q84,255 82,200 Q80,138 105,100 Q130,62 200,60 Z" fill="#8B4513" stroke="#C17F24" stroke-width="2.5"/>
  <!-- Forehead carved ridge -->
  <path d="M150,80 Q175,68 200,65 Q225,68 250,80" fill="none" stroke="#C17F24" stroke-width="2"/>
  <!-- Cheek raised panels -->
  <path d="M95,165 Q110,155 122,170 Q125,190 120,210 Q108,215 95,205 Z" fill="#6B3210" stroke="#C17F24" stroke-width="1.5"/>
  <path d="M305,165 Q290,155 278,170 Q275,190 280,210 Q292,215 305,205 Z" fill="#6B3210" stroke="#C17F24" stroke-width="1.5"/>
  <!-- Eye holes — almond shaped -->
  <ellipse cx="163" cy="180" rx="28" ry="18" fill="#1A0800"/>
  <ellipse cx="237" cy="180" rx="28" ry="18" fill="#1A0800"/>
  <ellipse cx="163" cy="180" rx="24" ry="14" fill="#0A0400"/>
  <ellipse cx="237" cy="180" rx="24" ry="14" fill="#0A0400"/>
  <!-- Eye glow -->
  <ellipse cx="163" cy="180" rx="10" ry="7" fill="#F5A623" filter="url(#maskGlow)" opacity="0.7"/>
  <ellipse cx="237" cy="180" rx="10" ry="7" fill="#F5A623" filter="url(#maskGlow)" opacity="0.7"/>
  <!-- Nose carved ridge -->
  <path d="M188,215 Q200,225 212,215 Q205,235 200,240 Q195,235 188,215" fill="#6B3210" stroke="#C17F24" stroke-width="1"/>
  <!-- Mouth slit — stern -->
  <path d="M165,270 Q185,264 200,267 Q215,264 235,270" fill="none" stroke="#C17F24" stroke-width="2"/>
  <path d="M172,272 Q200,280 228,272" fill="none" stroke="#C17F24" stroke-width="1" opacity="0.5"/>
  <!-- Forehead carved triangle -->
  <polygon points="200,80 188,108 212,108" fill="none" stroke="#C17F24" stroke-width="2"/>
  <circle cx="200" cy="90" r="4" fill="#F5A623" filter="url(#maskGlow)"/>
  <!-- Cheek kente-inspired lines -->
  <g stroke="#C17F24" stroke-width="1.5" opacity="0.7">
    <line x1="108" y1="175" x2="118" y2="175"/>
    <line x1="108" y1="185" x2="118" y2="185"/>
    <line x1="108" y1="195" x2="118" y2="195"/>
    <line x1="282" y1="175" x2="292" y2="175"/>
    <line x1="282" y1="185" x2="292" y2="185"/>
    <line x1="282" y1="195" x2="292" y2="195"/>
  </g>
  <!-- Crown horns -->
  <path d="M170,65 Q155,35 150,20 Q160,40 165,55" stroke="#C17F24" stroke-width="3" fill="none" stroke-linecap="round"/>
  <path d="M230,65 Q245,35 250,20 Q240,40 235,55" stroke="#C17F24" stroke-width="3" fill="none" stroke-linecap="round"/>
  <circle cx="150" cy="20" r="5" fill="#F5A623" filter="url(#maskGlow)"/>
  <circle cx="250" cy="20" r="5" fill="#F5A623" filter="url(#maskGlow)"/>
</svg>
