<svg xmlns="http://www.w3.org/2000/svg" viewBox="0 0 200 200" width="200" height="200">
  <rect width="200" height="200" fill="none"/>
  <!-- Dark eclipse ring above head -->
  <rect x="70" y="5" width="10" height="6" fill="#1a0028"/>
  <rect x="80" y="3" width="10" height="6" fill="#2d004d"/>
  <rect x="90" y="2" width="20" height="6" fill="#2d004d"/>
  <rect x="110" y="3" width="10" height="6" fill="#2d004d"/>
  <rect x="120" y="5" width="10" height="6" fill="#1a0028"/>
  <rect x="62" y="10" width="10" height="6" fill="#1a0028"/>
  <rect x="128" y="10" width="10" height="6" fill="#1a0028"/>
  <rect x="56" y="16" width="8" height="6" fill="#0d0015" opacity="0.7"/>
  <rect x="136" y="16" width="8" height="6" fill="#0d0015" opacity="0.7"/>
  <!-- Inner glow -->
  <rect x="85" y="6" width="6" height="4" fill="#bf00ff" opacity="0.5"/>
  <rect x="95" y="5" width="10" height="4" fill="#bf00ff" opacity="0.6"/>
  <rect x="108" y="6" width="6" height="4" fill="#bf00ff" opacity="0.5"/>
  <!-- Radiating dark energy -->
  <rect x="95" y="12" width="4" height="8" fill="#2d004d" opacity="0.4"/>
  <rect x="100" y="10" width="4" height="10" fill="#2d004d" opacity="0.3"/>
  <rect x="88" y="14" width="4" height="6" fill="#1a0028" opacity="0.3"/>
  <rect x="112" y="14" width="4" height="6" fill="#1a0028" opacity="0.3"/>
</svg>
