<svg xmlns="http://www.w3.org/2000/svg" viewBox="0 0 200 200" width="200" height="200">
  <rect width="200" height="200" fill="none"/>
  <!-- Pulsing shadow aura around creature -->
  <rect x="30" y="30" width="10" height="10" fill="#2d1b4e" opacity="0.3"/>
  <rect x="40" y="25" width="10" height="10" fill="#3b1f5e" opacity="0.25"/>
  <rect x="160" y="30" width="10" height="10" fill="#2d1b4e" opacity="0.3"/>
  <rect x="150" y="25" width="10" height="10" fill="#3b1f5e" opacity="0.25"/>
  <rect x="25" y="90" width="10" height="10" fill="#4a2068" opacity="0.35"/>
  <rect x="20" y="100" width="10" height="10" fill="#2d1b4e" opacity="0.3"/>
  <rect x="165" y="90" width="10" height="10" fill="#4a2068" opacity="0.35"/>
  <rect x="170" y="100" width="10" height="10" fill="#2d1b4e" opacity="0.3"/>
  <rect x="25" y="110" width="10" height="10" fill="#3b1f5e" opacity="0.2"/>
  <rect x="165" y="110" width="10" height="10" fill="#3b1f5e" opacity="0.2"/>
  <rect x="30" y="140" width="10" height="10" fill="#2d1b4e" opacity="0.25"/>
  <rect x="160" y="140" width="10" height="10" fill="#2d1b4e" opacity="0.25"/>
  <rect x="35" y="150" width="10" height="10" fill="#4a2068" opacity="0.2"/>
  <rect x="155" y="150" width="10" height="10" fill="#4a2068" opacity="0.2"/>
  <!-- Inner glow particles -->
  <rect x="45" y="60" width="5" height="5" fill="#bf00ff" opacity="0.4"/>
  <rect x="150" y="70" width="5" height="5" fill="#bf00ff" opacity="0.4"/>
  <rect x="40" y="130" width="5" height="5" fill="#bf00ff" opacity="0.3"/>
  <rect x="155" y="120" width="5" height="5" fill="#bf00ff" opacity="0.3"/>
</svg>
