<svg xmlns="http://www.w3.org/2000/svg" viewBox="0 0 200 200" width="200" height="200">
  <rect width="200" height="200" fill="none"/>
  <!-- Dark tendrils extending from body -->
  <rect x="40" y="100" width="6" height="6" fill="#0d0015"/>
  <rect x="34" y="106" width="6" height="6" fill="#0d0015"/>
  <rect x="28" y="112" width="6" height="6" fill="#0d0015"/>
  <rect x="22" y="118" width="6" height="6" fill="#1a0028"/>
  <rect x="16" y="124" width="6" height="8" fill="#1a0028"/>
  <rect x="10" y="130" width="6" height="10" fill="#0d0015" opacity="0.7"/>
  <rect x="155" y="95" width="6" height="6" fill="#0d0015"/>
  <rect x="161" y="100" width="6" height="6" fill="#0d0015"/>
  <rect x="167" y="106" width="6" height="6" fill="#1a0028"/>
  <rect x="173" y="112" width="6" height="8" fill="#1a0028"/>
  <rect x="178" y="120" width="6" height="10" fill="#0d0015" opacity="0.7"/>
  <!-- Lower tendrils -->
  <rect x="60" y="155" width="6" height="6" fill="#0d0015"/>
  <rect x="56" y="161" width="6" height="8" fill="#1a0028"/>
  <rect x="50" y="168" width="6" height="8" fill="#0d0015" opacity="0.6"/>
  <rect x="130" y="155" width="6" height="6" fill="#0d0015"/>
  <rect x="134" y="161" width="6" height="8" fill="#1a0028"/>
  <rect x="140" y="168" width="6" height="8" fill="#0d0015" opacity="0.6"/>
</svg>
