<svg xmlns="http://www.w3.org/2000/svg" viewBox="0 0 400 400" width="400" height="400">
  <!-- Trait: Rapid Foam - flow-effects (whitewater rapid foam) -->
  <!-- Rushing water base -->
  <path d="M0 290 Q60 275 120 290 Q180 305 240 285 Q300 265 360 280 Q385 287 400 283 L400 400 L0 400Z" fill="#1A6EA0" opacity="0.6"/>

  <!-- Foam patches -->
  <ellipse cx="80" cy="282" rx="38" ry="18" fill="white" opacity="0.7"/>
  <ellipse cx="160" cy="295" rx="30" ry="14" fill="white" opacity="0.65"/>
  <ellipse cx="240" cy="278" rx="42" ry="19" fill="white" opacity="0.7"/>
  <ellipse cx="320" cy="285" rx="35" ry="16" fill="white" opacity="0.65"/>
  <ellipse cx="50" cy="298" rx="22" ry="10" fill="white" opacity="0.55"/>
  <ellipse cx="190" cy="288" rx="25" ry="12" fill="white" opacity="0.55"/>
  <ellipse cx="370" cy="295" rx="28" ry="12" fill="white" opacity="0.6"/>

  <!-- Micro-foam bubbles -->
  <circle cx="88" cy="280" r="5" fill="white" opacity="0.8"/>
  <circle cx="102" cy="285" r="4" fill="white" opacity="0.75"/>
  <circle cx="68" cy="278" r="6" fill="white" opacity="0.7"/>
  <circle cx="248" cy="275" r="5" fill="white" opacity="0.8"/>
  <circle cx="235" cy="283" r="4" fill="white" opacity="0.75"/>
  <circle cx="260" cy="280" r="6" fill="white" opacity="0.7"/>
  <circle cx="328" cy="282" r="5" fill="white" opacity="0.75"/>
  <circle cx="312" cy="290" r="4" fill="white" opacity="0.7"/>

  <!-- Current streaks -->
  <path d="M0 310 Q80 302 160 312 Q240 322 320 308 Q365 300 400 305" fill="none" stroke="#5AB8E0" stroke-width="3" opacity="0.5"/>
  <path d="M0 328 Q100 318 200 328 Q300 338 400 325" fill="none" stroke="#3A9EC8" stroke-width="2.5" opacity="0.4"/>
</svg>
