<svg xmlns="http://www.w3.org/2000/svg" viewBox="0 0 400 400" width="400" height="400">
  <!-- Trait: Water Splash - flow-effects -->
  <defs>
    <radialGradient id="splashGrad" cx="50%" cy="70%" r="50%">
      <stop offset="0%" stop-color="#5AB8E0" stop-opacity="0.9"/>
      <stop offset="100%" stop-color="#1A6EA0" stop-opacity="0.3"/>
    </radialGradient>
  </defs>
  <!-- Impact ring -->
  <ellipse cx="200" cy="320" rx="80" ry="22" fill="url(#splashGrad)"/>
  <ellipse cx="200" cy="320" rx="80" ry="22" fill="none" stroke="#7AD0F0" stroke-width="2" opacity="0.7"/>

  <!-- Main splash jets -->
  <path d="M200 320 Q185 285 170 255 Q185 270 195 290 Q185 268 195 240" fill="none" stroke="#5AB8E0" stroke-width="5" stroke-linecap="round"/>
  <path d="M200 320 Q215 285 230 255 Q215 270 205 290 Q215 268 205 240" fill="none" stroke="#5AB8E0" stroke-width="5" stroke-linecap="round"/>
  <path d="M200 320 Q162 295 135 278" fill="none" stroke="#7AD0F0" stroke-width="4" stroke-linecap="round"/>
  <path d="M200 320 Q238 295 265 278" fill="none" stroke="#7AD0F0" stroke-width="4" stroke-linecap="round"/>
  <path d="M200 320 Q152 308 120 305" fill="none" stroke="#5AB8E0" stroke-width="3" stroke-linecap="round"/>
  <path d="M200 320 Q248 308 280 305" fill="none" stroke="#5AB8E0" stroke-width="3" stroke-linecap="round"/>

  <!-- Droplets -->
  <circle cx="170" cy="248" r="5" fill="#5AB8E0" opacity="0.8"/>
  <circle cx="230" cy="248" r="5" fill="#5AB8E0" opacity="0.8"/>
  <circle cx="145" cy="272" r="4" fill="#7AD0F0" opacity="0.7"/>
  <circle cx="258" cy="272" r="4" fill="#7AD0F0" opacity="0.7"/>
  <circle cx="125" cy="298" r="3.5" fill="#5AB8E0" opacity="0.6"/>
  <circle cx="278" cy="298" r="3.5" fill="#5AB8E0" opacity="0.6"/>
  <circle cx="188" cy="235" r="3" fill="#7AD0F0" opacity="0.6"/>
  <circle cx="212" cy="232" r="3" fill="#7AD0F0" opacity="0.6"/>
  <circle cx="158" cy="260" r="3" fill="#5AB8E0" opacity="0.5"/>
  <circle cx="244" cy="258" r="3" fill="#5AB8E0" opacity="0.5"/>
</svg>
