<svg xmlns="http://www.w3.org/2000/svg" viewBox="0 0 200 200" width="200" height="200">
  <rect width="200" height="200" fill="none"/>
  <!-- City background glow - building silhouettes at base -->
  <rect x="0" y="160" width="200" height="40" fill="#0a0015" opacity="0.8"/>
  <rect x="10" y="140" width="20" height="60" fill="#110020" opacity="0.9"/>
  <rect x="35" y="150" width="15" height="50" fill="#110020" opacity="0.9"/>
  <rect x="55" y="135" width="18" height="65" fill="#110020" opacity="0.9"/>
  <rect x="130" y="145" width="16" height="55" fill="#110020" opacity="0.9"/>
  <rect x="150" y="138" width="20" height="62" fill="#110020" opacity="0.9"/>
  <rect x="175" y="148" width="18" height="52" fill="#110020" opacity="0.9"/>
  <!-- Building window lights -->
  <rect x="13" y="145" width="4" height="4" fill="#ff00ff" opacity="0.6"/>
  <rect x="20" y="148" width="4" height="4" fill="#cc00ff" opacity="0.5"/>
  <rect x="38" y="155" width="4" height="4" fill="#00ffff" opacity="0.5"/>
  <rect x="58" y="140" width="4" height="4" fill="#ff00ff" opacity="0.6"/>
  <rect x="64" y="148" width="4" height="4" fill="#ff00cc" opacity="0.5"/>
  <rect x="133" y="150" width="4" height="4" fill="#00ffff" opacity="0.5"/>
  <rect x="153" y="143" width="4" height="4" fill="#ff00ff" opacity="0.6"/>
  <rect x="178" y="152" width="4" height="4" fill="#cc00ff" opacity="0.5"/>
  <!-- Ground neon reflection -->
  <rect x="0" y="180" width="200" height="4" fill="#ff00ff" opacity="0.15"/>
</svg>
