<svg xmlns="http://www.w3.org/2000/svg" viewBox="0 0 32 32" shape-rendering="crispEdges">
  <title>Accessory: Data Wings</title>
  <!-- Left wing - data stream -->
  <rect x="4" y="10" width="2" height="1" fill="#00e5ff" opacity="0.3"/>
  <rect x="2" y="9" width="2" height="1" fill="#00e5ff" opacity="0.5"/>
  <rect x="0" y="8" width="2" height="1" fill="#00e5ff" opacity="0.7"/>
  <rect x="4" y="12" width="2" height="1" fill="#00bcd4" opacity="0.3"/>
  <rect x="2" y="13" width="2" height="1" fill="#00bcd4" opacity="0.5"/>
  <rect x="0" y="14" width="2" height="1" fill="#00bcd4" opacity="0.7"/>
  <!-- Right wing - data stream -->
  <rect x="22" y="10" width="2" height="1" fill="#00e5ff" opacity="0.3"/>
  <rect x="24" y="9" width="2" height="1" fill="#00e5ff" opacity="0.5"/>
  <rect x="26" y="8" width="2" height="1" fill="#00e5ff" opacity="0.7"/>
  <rect x="28" y="7" width="2" height="1" fill="#00e5ff" opacity="0.9"/>
  <rect x="22" y="12" width="2" height="1" fill="#00bcd4" opacity="0.3"/>
  <rect x="24" y="13" width="2" height="1" fill="#00bcd4" opacity="0.5"/>
  <rect x="26" y="14" width="2" height="1" fill="#00bcd4" opacity="0.7"/>
  <rect x="28" y="15" width="2" height="1" fill="#00bcd4" opacity="0.9"/>
  <!-- Wing nodes -->
  <rect x="1" y="8" width="1" height="1" fill="#00ffff"/>
  <rect x="1" y="14" width="1" height="1" fill="#00ffff"/>
  <rect x="29" y="7" width="1" height="1" fill="#00ffff"/>
  <rect x="29" y="15" width="1" height="1" fill="#00ffff"/>
</svg>
