<svg xmlns="http://www.w3.org/2000/svg" viewBox="0 0 200 200" width="200" height="200">
  <rect width="200" height="200" fill="none"/>
  <!-- Bone collar/necklace around neck area -->
  <rect x="55" y="72" width="8" height="6" fill="#d4d4d4"/>
  <rect x="63" y="70" width="6" height="8" fill="#c4c4c4"/>
  <rect x="69" y="68" width="8" height="6" fill="#d4d4d4"/>
  <rect x="77" y="67" width="6" height="8" fill="#c4c4c4"/>
  <rect x="83" y="66" width="8" height="6" fill="#d4d4d4"/>
  <rect x="91" y="66" width="8" height="6" fill="#c4c4c4"/>
  <rect x="99" y="66" width="8" height="6" fill="#d4d4d4"/>
  <rect x="107" y="67" width="6" height="8" fill="#c4c4c4"/>
  <rect x="113" y="68" width="8" height="6" fill="#d4d4d4"/>
  <rect x="121" y="70" width="6" height="8" fill="#c4c4c4"/>
  <rect x="127" y="72" width="8" height="6" fill="#d4d4d4"/>
  <!-- Center fang pendant -->
  <rect x="93" y="72" width="6" height="4" fill="#e4e4e4"/>
  <rect x="94" y="76" width="4" height="4" fill="#d4d4d4"/>
  <rect x="95" y="80" width="3" height="4" fill="#c4c4c4"/>
  <rect x="96" y="84" width="2" height="3" fill="#b4b4b4"/>
  <!-- Dark gem on pendant -->
  <rect x="94" y="73" width="4" height="3" fill="#4a2068"/>
</svg>
