<svg xmlns="http://www.w3.org/2000/svg" viewBox="0 0 200 200" width="200" height="200">
  <rect width="200" height="200" fill="none"/>
  <!-- Chain links around neck/chest -->
  <rect x="60" y="90" width="8" height="6" fill="#999988"/>
  <rect x="72" y="88" width="8" height="6" fill="#aaaaaa"/>
  <rect x="84" y="90" width="8" height="6" fill="#999988"/>
  <rect x="96" y="88" width="8" height="6" fill="#aaaaaa"/>
  <rect x="108" y="90" width="8" height="6" fill="#999988"/>
  <rect x="120" y="88" width="8" height="6" fill="#aaaaaa"/>
  <!-- Chain link outlines/gaps -->
  <rect x="62" y="91" width="4" height="4" fill="#111122"/>
  <rect x="74" y="89" width="4" height="4" fill="#111122"/>
  <rect x="86" y="91" width="4" height="4" fill="#111122"/>
  <rect x="98" y="89" width="4" height="4" fill="#111122"/>
  <rect x="110" y="91" width="4" height="4" fill="#111122"/>
  <rect x="122" y="89" width="4" height="4" fill="#111122"/>
  <!-- Neon pendant in center -->
  <rect x="89" y="94" width="12" height="12" fill="#ff00ff"/>
  <rect x="91" y="96" width="8" height="8" fill="#ffffff" opacity="0.3"/>
  <rect x="87" y="92" width="16" height="16" fill="#ff00ff" opacity="0.2"/>
</svg>
