<svg xmlns="http://www.w3.org/2000/svg" viewBox="0 0 200 200" width="200" height="200">
  <rect width="200" height="200" fill="none"/>
  <!-- Collar band around neck -->
  <rect x="60" y="86" width="70" height="8" fill="#220033"/>
  <rect x="62" y="88" width="66" height="4" fill="#330044"/>
  <!-- Spikes on collar -->
  <rect x="65" y="80" width="6" height="8" fill="#cc00ff"/>
  <rect x="67" y="78" width="2" height="4" fill="#ff00ff"/>
  <rect x="77" y="80" width="6" height="8" fill="#cc00ff"/>
  <rect x="79" y="78" width="2" height="4" fill="#ff00ff"/>
  <rect x="89" y="80" width="6" height="8" fill="#cc00ff"/>
  <rect x="91" y="78" width="2" height="4" fill="#ff00ff"/>
  <rect x="101" y="80" width="6" height="8" fill="#cc00ff"/>
  <rect x="103" y="78" width="2" height="4" fill="#ff00ff"/>
  <rect x="113" y="80" width="6" height="8" fill="#cc00ff"/>
  <rect x="115" y="78" width="2" height="4" fill="#ff00ff"/>
  <!-- Spike glow -->
  <rect x="63" y="78" width="12" height="14" fill="#ff00ff" opacity="0.1"/>
  <rect x="87" y="78" width="12" height="14" fill="#ff00ff" opacity="0.1"/>
  <rect x="111" y="78" width="12" height="14" fill="#ff00ff" opacity="0.1"/>
</svg>
